<?xml version="1.0" encoding="us-ascii" standalone="no"?><svg xmlns="http://www.w3.org/2000/svg" xmlns:xlink="http://www.w3.org/1999/xlink" contentStyleType="text/css" height="616px" preserveAspectRatio="none" style="width:498px;height:616px;background:#FFFFFF;" version="1.1" viewBox="0 0 498 616" width="498px" zoomAndPan="magnify"><defs/><g><text fill="#000000" font-family="sans-serif" font-size="14" font-weight="bold" lengthAdjust="spacing" textLength="216" x="142.5" y="27.9951">&#21487;&#38752;&#20107;&#20214;&#38431;&#21015;-&#20070;&#24215;&#31034;&#20363;&#20462;&#25913;&#36807;&#31243;</text><rect fill="#FFFFFF" height="71.2656" style="stroke:#181818;stroke-width:1.0;" width="10" x="97" y="104.7266"/><rect fill="none" height="150.4688" style="stroke:#000000;stroke-width:1.5;" width="190" x="222" y="190.9922"/><rect fill="none" height="90.2031" style="stroke:#000000;stroke-width:1.5;" width="170" x="232" y="244.2578"/><rect fill="none" height="150.4688" style="stroke:#000000;stroke-width:1.5;" width="270" x="222" y="384.5938"/><rect fill="none" height="90.2031" style="stroke:#000000;stroke-width:1.5;" width="250" x="232" y="437.8594"/><line style="stroke:#181818;stroke-width:0.5;stroke-dasharray:5.0,5.0;" x1="26" x2="26" y1="73.5938" y2="581.1953"/><line style="stroke:#181818;stroke-width:0.5;stroke-dasharray:5.0,5.0;" x1="102" x2="102" y1="73.5938" y2="581.1953"/><line style="stroke:#181818;stroke-width:0.5;stroke-dasharray:5.0,5.0;" x1="277" x2="277" y1="73.5938" y2="581.1953"/><line style="stroke:#181818;stroke-width:0.5;stroke-dasharray:5.0,5.0;" x1="357" x2="357" y1="73.5938" y2="581.1953"/><line style="stroke:#181818;stroke-width:0.5;stroke-dasharray:5.0,5.0;" x1="437" x2="437" y1="73.5938" y2="581.1953"/><rect fill="#E2E2F0" height="30.2969" rx="2.5" ry="2.5" style="stroke:#181818;stroke-width:0.5;" width="42" x="5" y="42.2969"/><text fill="#000000" font-family="sans-serif" font-size="14" lengthAdjust="spacing" textLength="28" x="12" y="62.292">&#20070;&#24215;</text><rect fill="#E2E2F0" height="30.2969" rx="2.5" ry="2.5" style="stroke:#181818;stroke-width:0.5;" width="42" x="5" y="580.1953"/><text fill="#000000" font-family="sans-serif" font-size="14" lengthAdjust="spacing" textLength="28" x="12" y="600.1904">&#20070;&#24215;</text><rect fill="#E2E2F0" height="30.2969" rx="2.5" ry="2.5" style="stroke:#181818;stroke-width:0.5;" width="70" x="67" y="42.2969"/><text fill="#000000" font-family="sans-serif" font-size="14" lengthAdjust="spacing" textLength="56" x="74" y="62.292">&#36134;&#21495;&#26381;&#21153;</text><rect fill="#E2E2F0" height="30.2969" rx="2.5" ry="2.5" style="stroke:#181818;stroke-width:0.5;" width="70" x="67" y="580.1953"/><text fill="#000000" font-family="sans-serif" font-size="14" lengthAdjust="spacing" textLength="56" x="74" y="600.1904">&#36134;&#21495;&#26381;&#21153;</text><rect fill="#E2E2F0" height="30.2969" rx="2.5" ry="2.5" style="stroke:#181818;stroke-width:0.5;" width="70" x="242" y="42.2969"/><text fill="#000000" font-family="sans-serif" font-size="14" lengthAdjust="spacing" textLength="56" x="249" y="62.292">&#28040;&#24687;&#38431;&#21015;</text><rect fill="#E2E2F0" height="30.2969" rx="2.5" ry="2.5" style="stroke:#181818;stroke-width:0.5;" width="70" x="242" y="580.1953"/><text fill="#000000" font-family="sans-serif" font-size="14" lengthAdjust="spacing" textLength="56" x="249" y="600.1904">&#28040;&#24687;&#38431;&#21015;</text><rect fill="#E2E2F0" height="30.2969" rx="2.5" ry="2.5" style="stroke:#181818;stroke-width:0.5;" width="70" x="322" y="42.2969"/><text fill="#000000" font-family="sans-serif" font-size="14" lengthAdjust="spacing" textLength="56" x="329" y="62.292">&#20179;&#24211;&#26381;&#21153;</text><rect fill="#E2E2F0" height="30.2969" rx="2.5" ry="2.5" style="stroke:#181818;stroke-width:0.5;" width="70" x="322" y="580.1953"/><text fill="#000000" font-family="sans-serif" font-size="14" lengthAdjust="spacing" textLength="56" x="329" y="600.1904">&#20179;&#24211;&#26381;&#21153;</text><rect fill="#E2E2F0" height="30.2969" rx="2.5" ry="2.5" style="stroke:#181818;stroke-width:0.5;" width="70" x="402" y="42.2969"/><text fill="#000000" font-family="sans-serif" font-size="14" lengthAdjust="spacing" textLength="56" x="409" y="62.292">&#21830;&#23478;&#26381;&#21153;</text><rect fill="#E2E2F0" height="30.2969" rx="2.5" ry="2.5" style="stroke:#181818;stroke-width:0.5;" width="70" x="402" y="580.1953"/><text fill="#000000" font-family="sans-serif" font-size="14" lengthAdjust="spacing" textLength="56" x="409" y="600.1904">&#21830;&#23478;&#26381;&#21153;</text><rect fill="#FFFFFF" height="71.2656" style="stroke:#181818;stroke-width:1.0;" width="10" x="97" y="104.7266"/><polygon fill="#181818" points="85,100.7266,95,104.7266,85,108.7266,89,104.7266" style="stroke:#181818;stroke-width:1.0;"/><line style="stroke:#181818;stroke-width:1.0;" x1="26" x2="91" y1="104.7266" y2="104.7266"/><text fill="#000000" font-family="sans-serif" font-size="13" lengthAdjust="spacing" textLength="52" x="35.5" y="99.6606">&#21551;&#21160;&#20107;&#21153;</text><line style="stroke:#181818;stroke-width:1.0;" x1="107" x2="149" y1="133.8594" y2="133.8594"/><line style="stroke:#181818;stroke-width:1.0;" x1="149" x2="149" y1="133.8594" y2="146.8594"/><line style="stroke:#181818;stroke-width:1.0;" x1="108" x2="149" y1="146.8594" y2="146.8594"/><polygon fill="#181818" points="118,142.8594,108,146.8594,118,150.8594,114,146.8594" style="stroke:#181818;stroke-width:1.0;"/><text fill="#000000" font-family="sans-serif" font-size="13" lengthAdjust="spacing" textLength="52" x="114" y="128.7935">&#25187;&#20943;&#36135;&#27454;</text><polygon fill="#181818" points="265,171.9922,275,175.9922,265,179.9922,269,175.9922" style="stroke:#181818;stroke-width:1.0;"/><line style="stroke:#181818;stroke-width:1.0;" x1="102" x2="271" y1="175.9922" y2="175.9922"/><text fill="#000000" font-family="sans-serif" font-size="13" lengthAdjust="spacing" textLength="138" x="120.5" y="170.9263">&#25552;&#20132;&#26412;&#22320;&#20107;&#21153;, &#21457;&#20986;&#28040;&#24687;</text><path d="M222,190.9922 L299,190.9922 L299,198.125 L289,208.125 L222,208.125 L222,190.9922 " fill="#EEEEEE" style="stroke:#000000;stroke-width:1.5;"/><rect fill="none" height="150.4688" style="stroke:#000000;stroke-width:1.5;" width="190" x="222" y="190.9922"/><text fill="#000000" font-family="sans-serif" font-size="13" font-weight="bold" lengthAdjust="spacing" textLength="32" x="237" y="204.0591">loop</text><text fill="#000000" font-family="sans-serif" font-size="11" font-weight="bold" lengthAdjust="spacing" textLength="76" x="314" y="203.2026">[&#24490;&#29615;&#30452;&#33267;&#25104;&#21151;]</text><polygon fill="#181818" points="345,225.2578,355,229.2578,345,233.2578,349,229.2578" style="stroke:#181818;stroke-width:1.0;"/><line style="stroke:#181818;stroke-width:1.0;" x1="277" x2="351" y1="229.2578" y2="229.2578"/><text fill="#000000" font-family="sans-serif" font-size="13" lengthAdjust="spacing" textLength="52" x="291" y="224.1919">&#25187;&#20943;&#24211;&#23384;</text><path d="M232,244.2578 L296,244.2578 L296,251.3906 L286,261.3906 L232,261.3906 L232,244.2578 " fill="#EEEEEE" style="stroke:#000000;stroke-width:1.5;"/><rect fill="none" height="90.2031" style="stroke:#000000;stroke-width:1.5;" width="170" x="232" y="244.2578"/><text fill="#000000" font-family="sans-serif" font-size="13" font-weight="bold" lengthAdjust="spacing" textLength="19" x="247" y="257.3247">alt</text><text fill="#000000" font-family="sans-serif" font-size="11" font-weight="bold" lengthAdjust="spacing" textLength="54" x="311" y="256.4683">[&#25187;&#20943;&#25104;&#21151;]</text><polygon fill="#181818" points="288,278.5234,278,282.5234,288,286.5234,284,282.5234" style="stroke:#181818;stroke-width:1.0;"/><line style="stroke:#181818;stroke-width:1.0;stroke-dasharray:2.0,2.0;" x1="282" x2="356" y1="282.5234" y2="282.5234"/><text fill="#000000" font-family="sans-serif" font-size="13" lengthAdjust="spacing" textLength="26" x="304" y="277.4575">&#25104;&#21151;</text><line style="stroke:#000000;stroke-width:1.0;stroke-dasharray:2.0,2.0;" x1="232" x2="402" y1="291.5234" y2="291.5234"/><text fill="#000000" font-family="sans-serif" font-size="11" font-weight="bold" lengthAdjust="spacing" textLength="87" x="237" y="301.7339">[&#19994;&#21153;&#25110;&#32593;&#32476;&#24322;&#24120;]</text><polygon fill="#181818" points="288,322.4609,278,326.4609,288,330.4609,284,326.4609" style="stroke:#181818;stroke-width:1.0;"/><line style="stroke:#181818;stroke-width:1.0;stroke-dasharray:2.0,2.0;" x1="282" x2="356" y1="326.4609" y2="326.4609"/><text fill="#000000" font-family="sans-serif" font-size="13" lengthAdjust="spacing" textLength="26" x="304" y="321.395">&#22833;&#36133;</text><polygon fill="#181818" points="113,365.5938,103,369.5938,113,373.5938,109,369.5938" style="stroke:#181818;stroke-width:1.0;"/><line style="stroke:#181818;stroke-width:1.0;stroke-dasharray:2.0,2.0;" x1="107" x2="276" y1="369.5938" y2="369.5938"/><text fill="#000000" font-family="sans-serif" font-size="13" lengthAdjust="spacing" textLength="151" x="114" y="364.5278">&#26356;&#26032;&#28040;&#24687;&#34920;, &#20179;&#24211;&#26381;&#21153;&#23436;&#25104;</text><path d="M222,384.5938 L299,384.5938 L299,391.7266 L289,401.7266 L222,401.7266 L222,384.5938 " fill="#EEEEEE" style="stroke:#000000;stroke-width:1.5;"/><rect fill="none" height="150.4688" style="stroke:#000000;stroke-width:1.5;" width="270" x="222" y="384.5938"/><text fill="#000000" font-family="sans-serif" font-size="13" font-weight="bold" lengthAdjust="spacing" textLength="32" x="237" y="397.6606">loop</text><text fill="#000000" font-family="sans-serif" font-size="11" font-weight="bold" lengthAdjust="spacing" textLength="76" x="314" y="396.8042">[&#24490;&#29615;&#30452;&#33267;&#25104;&#21151;]</text><polygon fill="#181818" points="425,418.8594,435,422.8594,425,426.8594,429,422.8594" style="stroke:#181818;stroke-width:1.0;"/><line style="stroke:#181818;stroke-width:1.0;" x1="277" x2="431" y1="422.8594" y2="422.8594"/><text fill="#000000" font-family="sans-serif" font-size="13" lengthAdjust="spacing" textLength="52" x="331" y="417.7935">&#36135;&#27454;&#25910;&#27454;</text><path d="M232,437.8594 L296,437.8594 L296,444.9922 L286,454.9922 L232,454.9922 L232,437.8594 " fill="#EEEEEE" style="stroke:#000000;stroke-width:1.5;"/><rect fill="none" height="90.2031" style="stroke:#000000;stroke-width:1.5;" width="250" x="232" y="437.8594"/><text fill="#000000" font-family="sans-serif" font-size="13" font-weight="bold" lengthAdjust="spacing" textLength="19" x="247" y="450.9263">alt</text><text fill="#000000" font-family="sans-serif" font-size="11" font-weight="bold" lengthAdjust="spacing" textLength="54" x="311" y="450.0698">[&#25187;&#20943;&#25104;&#21151;]</text><polygon fill="#181818" points="288,472.125,278,476.125,288,480.125,284,476.125" style="stroke:#181818;stroke-width:1.0;"/><line style="stroke:#181818;stroke-width:1.0;stroke-dasharray:2.0,2.0;" x1="282" x2="436" y1="476.125" y2="476.125"/><text fill="#000000" font-family="sans-serif" font-size="13" lengthAdjust="spacing" textLength="26" x="344" y="471.0591">&#25104;&#21151;</text><line style="stroke:#000000;stroke-width:1.0;stroke-dasharray:2.0,2.0;" x1="232" x2="482" y1="485.125" y2="485.125"/><text fill="#000000" font-family="sans-serif" font-size="11" font-weight="bold" lengthAdjust="spacing" textLength="87" x="237" y="495.3354">[&#19994;&#21153;&#25110;&#32593;&#32476;&#24322;&#24120;]</text><polygon fill="#181818" points="288,516.0625,278,520.0625,288,524.0625,284,520.0625" style="stroke:#181818;stroke-width:1.0;"/><line style="stroke:#181818;stroke-width:1.0;stroke-dasharray:2.0,2.0;" x1="282" x2="436" y1="520.0625" y2="520.0625"/><text fill="#000000" font-family="sans-serif" font-size="13" lengthAdjust="spacing" textLength="26" x="344" y="514.9966">&#22833;&#36133;</text><polygon fill="#181818" points="113,559.1953,103,563.1953,113,567.1953,109,563.1953" style="stroke:#181818;stroke-width:1.0;"/><line style="stroke:#181818;stroke-width:1.0;stroke-dasharray:2.0,2.0;" x1="107" x2="276" y1="563.1953" y2="563.1953"/><text fill="#000000" font-family="sans-serif" font-size="13" lengthAdjust="spacing" textLength="151" x="114" y="558.1294">&#26356;&#26032;&#28040;&#24687;&#34920;, &#21830;&#23478;&#26381;&#21153;&#23436;&#25104;</text></g></svg>