<?xml version="1.0" encoding="us-ascii" standalone="no"?><svg xmlns="http://www.w3.org/2000/svg" xmlns:xlink="http://www.w3.org/1999/xlink" contentStyleType="text/css" height="530px" preserveAspectRatio="none" style="width:775px;height:530px;background:#FFFFFF;" version="1.1" viewBox="0 0 775 530" width="775px" zoomAndPan="magnify"><defs/><g><text fill="#000000" font-family="sans-serif" font-size="14" font-weight="bold" lengthAdjust="spacing" textLength="230" x="274" y="27.9951">OAuth2-&#25480;&#26435;&#30721;&#27169;&#24335;&#30340;&#35843;&#29992;&#26102;&#24207;&#22270;</text><rect fill="#FFFFFF" height="29.1328" style="stroke:#181818;stroke-width:1.0;" width="10" x="618" y="192.125"/><rect fill="#FFFFFF" height="29.1328" style="stroke:#181818;stroke-width:1.0;" width="10" x="618" y="304.5234"/><rect fill="#FFFFFF" height="29.1328" style="stroke:#181818;stroke-width:1.0;" width="10" x="712" y="411.9219"/><rect fill="none" height="104.5313" style="stroke:#000000;stroke-width:1.5;" width="759" x="10" y="373.6563"/><line style="stroke:#181818;stroke-width:0.5;stroke-dasharray:5.0,5.0;" x1="62" x2="62" y1="73.5938" y2="495.1875"/><line style="stroke:#181818;stroke-width:0.5;stroke-dasharray:5.0,5.0;" x1="216" x2="216" y1="73.5938" y2="495.1875"/><line style="stroke:#181818;stroke-width:0.5;stroke-dasharray:5.0,5.0;" x1="370" x2="370" y1="73.5938" y2="495.1875"/><line style="stroke:#181818;stroke-width:0.5;stroke-dasharray:5.0,5.0;" x1="623" x2="623" y1="73.5938" y2="495.1875"/><line style="stroke:#181818;stroke-width:0.5;stroke-dasharray:5.0,5.0;" x1="717" x2="717" y1="73.5938" y2="495.1875"/><rect fill="#E2E2F0" height="30.2969" rx="2.5" ry="2.5" style="stroke:#181818;stroke-width:0.5;" width="84" x="20" y="42.2969"/><text fill="#000000" font-family="sans-serif" font-size="14" lengthAdjust="spacing" textLength="70" x="27" y="62.292">&#36164;&#28304;&#25152;&#26377;&#32773;</text><rect fill="#E2E2F0" height="30.2969" rx="2.5" ry="2.5" style="stroke:#181818;stroke-width:0.5;" width="84" x="20" y="494.1875"/><text fill="#000000" font-family="sans-serif" font-size="14" lengthAdjust="spacing" textLength="70" x="27" y="514.1826">&#36164;&#28304;&#25152;&#26377;&#32773;</text><rect fill="#E2E2F0" height="30.2969" rx="2.5" ry="2.5" style="stroke:#181818;stroke-width:0.5;" width="70" x="181" y="42.2969"/><text fill="#000000" font-family="sans-serif" font-size="14" lengthAdjust="spacing" textLength="56" x="188" y="62.292">&#25805;&#20316;&#20195;&#29702;</text><rect fill="#E2E2F0" height="30.2969" rx="2.5" ry="2.5" style="stroke:#181818;stroke-width:0.5;" width="70" x="181" y="494.1875"/><text fill="#000000" font-family="sans-serif" font-size="14" lengthAdjust="spacing" textLength="56" x="188" y="514.1826">&#25805;&#20316;&#20195;&#29702;</text><rect fill="#E2E2F0" height="30.2969" rx="2.5" ry="2.5" style="stroke:#181818;stroke-width:0.5;" width="84" x="328" y="42.2969"/><text fill="#000000" font-family="sans-serif" font-size="14" lengthAdjust="spacing" textLength="70" x="335" y="62.292">&#31532;&#19977;&#26041;&#24212;&#29992;</text><rect fill="#E2E2F0" height="30.2969" rx="2.5" ry="2.5" style="stroke:#181818;stroke-width:0.5;" width="84" x="328" y="494.1875"/><text fill="#000000" font-family="sans-serif" font-size="14" lengthAdjust="spacing" textLength="70" x="335" y="514.1826">&#31532;&#19977;&#26041;&#24212;&#29992;</text><rect fill="#E2E2F0" height="30.2969" rx="2.5" ry="2.5" style="stroke:#181818;stroke-width:0.5;" width="84" x="581" y="42.2969"/><text fill="#000000" font-family="sans-serif" font-size="14" lengthAdjust="spacing" textLength="70" x="588" y="62.292">&#25480;&#26435;&#26381;&#21153;&#22120;</text><rect fill="#E2E2F0" height="30.2969" rx="2.5" ry="2.5" style="stroke:#181818;stroke-width:0.5;" width="84" x="581" y="494.1875"/><text fill="#000000" font-family="sans-serif" font-size="14" lengthAdjust="spacing" textLength="70" x="588" y="514.1826">&#25480;&#26435;&#26381;&#21153;&#22120;</text><rect fill="#E2E2F0" height="30.2969" rx="2.5" ry="2.5" style="stroke:#181818;stroke-width:0.5;" width="84" x="675" y="42.2969"/><text fill="#000000" font-family="sans-serif" font-size="14" lengthAdjust="spacing" textLength="70" x="682" y="62.292">&#36164;&#28304;&#26381;&#21153;&#22120;</text><rect fill="#E2E2F0" height="30.2969" rx="2.5" ry="2.5" style="stroke:#181818;stroke-width:0.5;" width="84" x="675" y="494.1875"/><text fill="#000000" font-family="sans-serif" font-size="14" lengthAdjust="spacing" textLength="70" x="682" y="514.1826">&#36164;&#28304;&#26381;&#21153;&#22120;</text><rect fill="#FFFFFF" height="29.1328" style="stroke:#181818;stroke-width:1.0;" width="10" x="618" y="192.125"/><rect fill="#FFFFFF" height="29.1328" style="stroke:#181818;stroke-width:1.0;" width="10" x="618" y="304.5234"/><rect fill="#FFFFFF" height="29.1328" style="stroke:#181818;stroke-width:1.0;" width="10" x="712" y="411.9219"/><polygon fill="#181818" points="204,100.7266,214,104.7266,204,108.7266,208,104.7266" style="stroke:#181818;stroke-width:1.0;"/><line style="stroke:#181818;stroke-width:1.0;" x1="62" x2="210" y1="104.7266" y2="104.7266"/><text fill="#000000" font-family="sans-serif" font-size="13" lengthAdjust="spacing" textLength="130" x="74" y="99.6606">&#36890;&#36807;&#25805;&#20316;&#20195;&#29702;&#35775;&#38382;&#24212;&#29992;</text><polygon fill="#181818" points="358,129.8594,368,133.8594,358,137.8594,362,133.8594" style="stroke:#181818;stroke-width:1.0;"/><line style="stroke:#181818;stroke-width:1.0;" x1="216" x2="364" y1="133.8594" y2="133.8594"/><text fill="#000000" font-family="sans-serif" font-size="13" lengthAdjust="spacing" textLength="130" x="228" y="128.7935">&#36935;&#21040;&#38656;&#35201;&#20351;&#29992;&#30340;&#39069;&#36164;&#28304;</text><polygon fill="#181818" points="611,158.9922,621,162.9922,611,166.9922,615,162.9922" style="stroke:#181818;stroke-width:1.0;"/><line style="stroke:#181818;stroke-width:1.0;" x1="370" x2="617" y1="162.9922" y2="162.9922"/><text fill="#000000" font-family="sans-serif" font-size="13" lengthAdjust="spacing" textLength="156" x="418.5" y="157.9263">&#36716;&#21521;&#25480;&#26435;&#26381;&#21153;&#22120;&#30340;&#25480;&#26435;&#39029;&#38754;</text><polygon fill="#181818" points="606,188.125,616,192.125,606,196.125,610,192.125" style="stroke:#181818;stroke-width:1.0;"/><line style="stroke:#181818;stroke-width:1.0;" x1="62" x2="612" y1="192.125" y2="192.125"/><text fill="#000000" font-family="sans-serif" font-size="13" lengthAdjust="spacing" textLength="112" x="284" y="187.0591">&#35748;&#35777;&#36523;&#20221;, &#21516;&#24847;&#25480;&#26435;</text><polygon fill="#181818" points="227,217.2578,217,221.2578,227,225.2578,223,221.2578" style="stroke:#181818;stroke-width:1.0;"/><line style="stroke:#181818;stroke-width:1.0;stroke-dasharray:2.0,2.0;" x1="221" x2="622" y1="221.2578" y2="221.2578"/><text fill="#000000" font-family="sans-serif" font-size="13" lengthAdjust="spacing" textLength="229" x="305" y="216.1919">&#36820;&#22238;&#31532;&#19977;&#26041;&#24212;&#29992;&#30340;&#22238;&#35843;&#22320;&#22336;, &#38468;&#24102;&#25480;&#26435;&#30721;</text><polygon fill="#181818" points="358,271.3906,368,275.3906,358,279.3906,362,275.3906" style="stroke:#181818;stroke-width:1.0;"/><line style="stroke:#181818;stroke-width:1.0;" x1="216" x2="364" y1="275.3906" y2="275.3906"/><text fill="#000000" font-family="sans-serif" font-size="13" lengthAdjust="spacing" textLength="78" x="254" y="270.3247">&#36716;&#21521;&#22238;&#35843;&#22320;&#22336;</text><polygon fill="#181818" points="606,300.5234,616,304.5234,606,308.5234,610,304.5234" style="stroke:#181818;stroke-width:1.0;"/><line style="stroke:#181818;stroke-width:1.0;" x1="370" x2="612" y1="304.5234" y2="304.5234"/><text fill="#000000" font-family="sans-serif" font-size="13" lengthAdjust="spacing" textLength="229" x="379.5" y="299.4575">&#23558;&#25480;&#26435;&#30721;&#21457;&#32473;&#25480;&#26435;&#26381;&#21153;&#22120;, &#25442;&#21462;&#35775;&#38382;&#20196;&#29260;</text><polygon fill="#181818" points="381,329.6563,371,333.6563,381,337.6563,377,333.6563" style="stroke:#181818;stroke-width:1.0;"/><line style="stroke:#181818;stroke-width:1.0;stroke-dasharray:2.0,2.0;" x1="375" x2="622" y1="333.6563" y2="333.6563"/><text fill="#000000" font-family="sans-serif" font-size="13" lengthAdjust="spacing" textLength="78" x="457.5" y="328.5903">&#32473;&#20104;&#35775;&#38382;&#20196;&#29260;</text><path d="M10,373.6563 L80,373.6563 L80,380.7891 L70,390.7891 L10,390.7891 L10,373.6563 " fill="#EEEEEE" style="stroke:#000000;stroke-width:1.5;"/><rect fill="none" height="104.5313" style="stroke:#000000;stroke-width:1.5;" width="759" x="10" y="373.6563"/><text fill="#000000" font-family="sans-serif" font-size="13" font-weight="bold" lengthAdjust="spacing" textLength="25" x="25" y="386.7231">opt</text><text fill="#000000" font-family="sans-serif" font-size="11" font-weight="bold" lengthAdjust="spacing" textLength="76" x="95" y="385.8667">[&#36164;&#28304;&#35775;&#38382;&#36807;&#31243;]</text><polygon fill="#181818" points="700,407.9219,710,411.9219,700,415.9219,704,411.9219" style="stroke:#181818;stroke-width:1.0;"/><line style="stroke:#181818;stroke-width:1.0;" x1="370" x2="706" y1="411.9219" y2="411.9219"/><text fill="#000000" font-family="sans-serif" font-size="13" lengthAdjust="spacing" textLength="78" x="502" y="406.856">&#25552;&#20379;&#35775;&#38382;&#20196;&#29260;</text><polygon fill="#181818" points="381,437.0547,371,441.0547,381,445.0547,377,441.0547" style="stroke:#181818;stroke-width:1.0;"/><line style="stroke:#181818;stroke-width:1.0;stroke-dasharray:2.0,2.0;" x1="375" x2="716" y1="441.0547" y2="441.0547"/><text fill="#000000" font-family="sans-serif" font-size="13" lengthAdjust="spacing" textLength="52" x="517.5" y="435.9888">&#25552;&#20379;&#36164;&#28304;</text><polygon fill="#181818" points="73,466.1875,63,470.1875,73,474.1875,69,470.1875" style="stroke:#181818;stroke-width:1.0;"/><line style="stroke:#181818;stroke-width:1.0;stroke-dasharray:2.0,2.0;" x1="67" x2="369" y1="470.1875" y2="470.1875"/><text fill="#000000" font-family="sans-serif" font-size="13" lengthAdjust="spacing" textLength="143" x="144.5" y="465.1216">&#36820;&#22238;&#23545;&#36164;&#28304;&#30340;&#22788;&#29702;&#32473;&#29992;&#25143;</text></g></svg>