<?xml version="1.0" encoding="us-ascii" standalone="no"?><svg xmlns="http://www.w3.org/2000/svg" xmlns:xlink="http://www.w3.org/1999/xlink" contentStyleType="text/css" height="345px" preserveAspectRatio="none" style="width:441px;height:345px;background:#FFFFFF;" version="1.1" viewBox="0 0 441 345" width="441px" zoomAndPan="magnify"><defs/><g><text fill="#000000" font-family="sans-serif" font-size="14" font-weight="bold" lengthAdjust="spacing" textLength="321" x="59.25" y="27.9951">Multi-Paxos&#31639;&#27861;-&#26377;&#36873;&#20027;&#26426;&#21046;&#30340;&#21327;&#21830;&#20849;&#35782;&#26102;&#24207;&#22270;</text><rect fill="#FFFFFF" height="187.7969" style="stroke:#181818;stroke-width:1.0;" width="10" x="102" y="104.7266"/><line style="stroke:#181818;stroke-width:0.5;stroke-dasharray:5.0,5.0;" x1="26" x2="26" y1="73.5938" y2="310.5234"/><line style="stroke:#181818;stroke-width:0.5;stroke-dasharray:5.0,5.0;" x1="106.5" x2="106.5" y1="73.5938" y2="310.5234"/><line style="stroke:#181818;stroke-width:0.5;stroke-dasharray:5.0,5.0;" x1="312.5" x2="312.5" y1="73.5938" y2="310.5234"/><line style="stroke:#181818;stroke-width:0.5;stroke-dasharray:5.0,5.0;" x1="397.5" x2="397.5" y1="73.5938" y2="310.5234"/><rect fill="#E2E2F0" height="30.2969" rx="2.5" ry="2.5" style="stroke:#181818;stroke-width:0.5;" width="42" x="5" y="42.2969"/><text fill="#000000" font-family="sans-serif" font-size="14" lengthAdjust="spacing" textLength="28" x="12" y="62.292">&#29992;&#25143;</text><rect fill="#E2E2F0" height="30.2969" rx="2.5" ry="2.5" style="stroke:#181818;stroke-width:0.5;" width="42" x="5" y="309.5234"/><text fill="#000000" font-family="sans-serif" font-size="14" lengthAdjust="spacing" textLength="28" x="12" y="329.5186">&#29992;&#25143;</text><rect fill="#E2E2F0" height="30.2969" rx="2.5" ry="2.5" style="stroke:#181818;stroke-width:0.5;" width="75" x="69.5" y="42.2969"/><text fill="#000000" font-family="sans-serif" font-size="14" lengthAdjust="spacing" textLength="61" x="76.5" y="62.292">&#33410;&#28857;1(&#20027;)</text><rect fill="#E2E2F0" height="30.2969" rx="2.5" ry="2.5" style="stroke:#181818;stroke-width:0.5;" width="75" x="69.5" y="309.5234"/><text fill="#000000" font-family="sans-serif" font-size="14" lengthAdjust="spacing" textLength="61" x="76.5" y="329.5186">&#33410;&#28857;1(&#20027;)</text><rect fill="#E2E2F0" height="30.2969" rx="2.5" ry="2.5" style="stroke:#181818;stroke-width:0.5;" width="75" x="275.5" y="42.2969"/><text fill="#000000" font-family="sans-serif" font-size="14" lengthAdjust="spacing" textLength="61" x="282.5" y="62.292">&#33410;&#28857;2(&#20174;)</text><rect fill="#E2E2F0" height="30.2969" rx="2.5" ry="2.5" style="stroke:#181818;stroke-width:0.5;" width="75" x="275.5" y="309.5234"/><text fill="#000000" font-family="sans-serif" font-size="14" lengthAdjust="spacing" textLength="61" x="282.5" y="329.5186">&#33410;&#28857;2(&#20174;)</text><rect fill="#E2E2F0" height="30.2969" rx="2.5" ry="2.5" style="stroke:#181818;stroke-width:0.5;" width="75" x="360.5" y="42.2969"/><text fill="#000000" font-family="sans-serif" font-size="14" lengthAdjust="spacing" textLength="61" x="367.5" y="62.292">&#33410;&#28857;3(&#20174;)</text><rect fill="#E2E2F0" height="30.2969" rx="2.5" ry="2.5" style="stroke:#181818;stroke-width:0.5;" width="75" x="360.5" y="309.5234"/><text fill="#000000" font-family="sans-serif" font-size="14" lengthAdjust="spacing" textLength="61" x="367.5" y="329.5186">&#33410;&#28857;3(&#20174;)</text><rect fill="#FFFFFF" height="187.7969" style="stroke:#181818;stroke-width:1.0;" width="10" x="102" y="104.7266"/><polygon fill="#181818" points="90,100.7266,100,104.7266,90,108.7266,94,104.7266" style="stroke:#181818;stroke-width:1.0;"/><line style="stroke:#181818;stroke-width:1.0;" x1="26" x2="96" y1="104.7266" y2="104.7266"/><text fill="#000000" font-family="sans-serif" font-size="13" lengthAdjust="spacing" textLength="52" x="38" y="99.6606">&#25805;&#20316;&#35831;&#27714;</text><line style="stroke:#181818;stroke-width:1.0;" x1="112" x2="154" y1="133.8594" y2="133.8594"/><line style="stroke:#181818;stroke-width:1.0;" x1="154" x2="154" y1="133.8594" y2="146.8594"/><line style="stroke:#181818;stroke-width:1.0;" x1="113" x2="154" y1="146.8594" y2="146.8594"/><polygon fill="#181818" points="123,142.8594,113,146.8594,123,150.8594,119,146.8594" style="stroke:#181818;stroke-width:1.0;"/><text fill="#000000" font-family="sans-serif" font-size="13" lengthAdjust="spacing" textLength="182" x="119" y="128.7935">Accept/Accepted(id, i, value)</text><polygon fill="#181818" points="301,171.9922,311,175.9922,301,179.9922,305,175.9922" style="stroke:#181818;stroke-width:1.0;"/><line style="stroke:#181818;stroke-width:1.0;" x1="112" x2="307" y1="175.9922" y2="175.9922"/><text fill="#000000" font-family="sans-serif" font-size="13" lengthAdjust="spacing" textLength="118" x="153.5" y="170.9263">Accept(id, i, value)</text><polygon fill="#181818" points="386,201.125,396,205.125,386,209.125,390,205.125" style="stroke:#181818;stroke-width:1.0;"/><line style="stroke:#181818;stroke-width:1.0;" x1="112" x2="392" y1="205.125" y2="205.125"/><text fill="#000000" font-family="sans-serif" font-size="13" lengthAdjust="spacing" textLength="118" x="196" y="200.0591">Accept(id, i, value)</text><polygon fill="#181818" points="123,230.2578,113,234.2578,123,238.2578,119,234.2578" style="stroke:#181818;stroke-width:1.0;"/><line style="stroke:#181818;stroke-width:1.0;" x1="117" x2="397" y1="234.2578" y2="234.2578"/><text fill="#000000" font-family="sans-serif" font-size="13" lengthAdjust="spacing" textLength="134" x="188" y="229.1919">Accepted(id, i, value)</text><polygon fill="#181818" points="123,259.3906,113,263.3906,123,267.3906,119,263.3906" style="stroke:#181818;stroke-width:1.0;"/><line style="stroke:#181818;stroke-width:1.0;" x1="117" x2="312" y1="263.3906" y2="263.3906"/><text fill="#000000" font-family="sans-serif" font-size="13" lengthAdjust="spacing" textLength="134" x="145.5" y="258.3247">Accepted(id, i, value)</text><polygon fill="#181818" points="37,288.5234,27,292.5234,37,296.5234,33,292.5234" style="stroke:#181818;stroke-width:1.0;"/><line style="stroke:#181818;stroke-width:1.0;stroke-dasharray:2.0,2.0;" x1="31" x2="106" y1="292.5234" y2="292.5234"/><text fill="#000000" font-family="sans-serif" font-size="13" lengthAdjust="spacing" textLength="52" x="40.5" y="287.4575">&#36820;&#22238;&#32467;&#26524;</text></g></svg>