<?xml version="1.0" encoding="us-ascii" standalone="no"?><svg xmlns="http://www.w3.org/2000/svg" xmlns:xlink="http://www.w3.org/1999/xlink" contentStyleType="text/css" height="245px" preserveAspectRatio="none" style="width:441px;height:245px;background:#FFFFFF;" version="1.1" viewBox="0 0 441 245" width="441px" zoomAndPan="magnify"><defs/><g><text fill="#000000" font-family="sans-serif" font-size="14" font-weight="bold" lengthAdjust="spacing" textLength="165" x="137" y="27.9951">Multi-Paxos&#31639;&#27861;&#26102;&#24207;&#22270;</text><line style="stroke:#181818;stroke-width:0.5;stroke-dasharray:5.0,5.0;" x1="26" x2="26" y1="73.5938" y2="210.125"/><line style="stroke:#181818;stroke-width:0.5;stroke-dasharray:5.0,5.0;" x1="102" x2="102" y1="73.5938" y2="210.125"/><line style="stroke:#181818;stroke-width:0.5;stroke-dasharray:5.0,5.0;" x1="320" x2="320" y1="73.5938" y2="210.125"/><line style="stroke:#181818;stroke-width:0.5;stroke-dasharray:5.0,5.0;" x1="400" x2="400" y1="73.5938" y2="210.125"/><rect fill="#E2E2F0" height="30.2969" rx="2.5" ry="2.5" style="stroke:#181818;stroke-width:0.5;" width="42" x="5" y="42.2969"/><text fill="#000000" font-family="sans-serif" font-size="14" lengthAdjust="spacing" textLength="28" x="12" y="62.292">&#29992;&#25143;</text><rect fill="#E2E2F0" height="30.2969" rx="2.5" ry="2.5" style="stroke:#181818;stroke-width:0.5;" width="42" x="5" y="209.125"/><text fill="#000000" font-family="sans-serif" font-size="14" lengthAdjust="spacing" textLength="28" x="12" y="229.1201">&#29992;&#25143;</text><rect fill="#E2E2F0" height="30.2969" rx="2.5" ry="2.5" style="stroke:#181818;stroke-width:0.5;" width="84" x="60" y="42.2969"/><text fill="#000000" font-family="sans-serif" font-size="14" lengthAdjust="spacing" textLength="70" x="67" y="62.292">&#20027;&#25552;&#26696;&#33410;&#28857;</text><rect fill="#E2E2F0" height="30.2969" rx="2.5" ry="2.5" style="stroke:#181818;stroke-width:0.5;" width="84" x="60" y="209.125"/><text fill="#000000" font-family="sans-serif" font-size="14" lengthAdjust="spacing" textLength="70" x="67" y="229.1201">&#20027;&#25552;&#26696;&#33410;&#28857;</text><rect fill="#E2E2F0" height="30.2969" rx="2.5" ry="2.5" style="stroke:#181818;stroke-width:0.5;" width="70" x="285" y="42.2969"/><text fill="#000000" font-family="sans-serif" font-size="14" lengthAdjust="spacing" textLength="56" x="292" y="62.292">&#20915;&#31574;&#33410;&#28857;</text><rect fill="#E2E2F0" height="30.2969" rx="2.5" ry="2.5" style="stroke:#181818;stroke-width:0.5;" width="70" x="285" y="209.125"/><text fill="#000000" font-family="sans-serif" font-size="14" lengthAdjust="spacing" textLength="56" x="292" y="229.1201">&#20915;&#31574;&#33410;&#28857;</text><rect fill="#E2E2F0" height="30.2969" rx="2.5" ry="2.5" style="stroke:#181818;stroke-width:0.5;" width="70" x="365" y="42.2969"/><text fill="#000000" font-family="sans-serif" font-size="14" lengthAdjust="spacing" textLength="56" x="372" y="62.292">&#35760;&#24405;&#33410;&#28857;</text><rect fill="#E2E2F0" height="30.2969" rx="2.5" ry="2.5" style="stroke:#181818;stroke-width:0.5;" width="70" x="365" y="209.125"/><text fill="#000000" font-family="sans-serif" font-size="14" lengthAdjust="spacing" textLength="56" x="372" y="229.1201">&#35760;&#24405;&#33410;&#28857;</text><polygon fill="#181818" points="90,100.7266,100,104.7266,90,108.7266,94,104.7266" style="stroke:#181818;stroke-width:1.0;"/><line style="stroke:#181818;stroke-width:1.0;" x1="26" x2="96" y1="104.7266" y2="104.7266"/><text fill="#000000" font-family="sans-serif" font-size="13" lengthAdjust="spacing" textLength="52" x="38" y="99.6606">&#25805;&#20316;&#35831;&#27714;</text><polygon fill="#181818" points="308,129.8594,318,133.8594,308,137.8594,312,133.8594" style="stroke:#181818;stroke-width:1.0;"/><line style="stroke:#181818;stroke-width:1.0;" x1="102" x2="314" y1="133.8594" y2="133.8594"/><text fill="#000000" font-family="sans-serif" font-size="13" lengthAdjust="spacing" textLength="178" x="122" y="128.7935">&#24191;&#25773; Accept(id, i, value) &#35831;&#27714;</text><polygon fill="#181818" points="113,158.9922,103,162.9922,113,166.9922,109,162.9922" style="stroke:#181818;stroke-width:1.0;"/><line style="stroke:#181818;stroke-width:1.0;stroke-dasharray:2.0,2.0;" x1="107" x2="319" y1="162.9922" y2="162.9922"/><text fill="#000000" font-family="sans-serif" font-size="13" lengthAdjust="spacing" textLength="194" x="114" y="157.9263">&#36820;&#22238; Accepted(id, i, value) &#24212;&#31572;</text><polygon fill="#181818" points="388,188.125,398,192.125,388,196.125,392,192.125" style="stroke:#181818;stroke-width:1.0;"/><line style="stroke:#181818;stroke-width:1.0;" x1="102" x2="394" y1="192.125" y2="192.125"/><text fill="#000000" font-family="sans-serif" font-size="13" lengthAdjust="spacing" textLength="151" x="175.5" y="187.0591">&#24418;&#25104;&#20915;&#35758;, &#20379;&#35760;&#24405;&#33410;&#28857;&#23398;&#20064;</text></g></svg>