<?xml version="1.0" encoding="us-ascii" standalone="no"?><svg xmlns="http://www.w3.org/2000/svg" xmlns:xlink="http://www.w3.org/1999/xlink" contentStyleType="text/css" height="406px" preserveAspectRatio="none" style="width:599px;height:406px;background:#FFFFFF;" version="1.1" viewBox="0 0 599 406" width="599px" zoomAndPan="magnify"><defs/><g><text fill="#000000" font-family="sans-serif" font-size="14" font-weight="bold" lengthAdjust="spacing" textLength="152" x="222.5" y="27.9951">Paxos&#31639;&#27861;&#25972;&#20307;&#26102;&#24207;&#22270;</text><rect fill="none" height="88.3984" style="stroke:#000000;stroke-width:1.5;" width="466" x="57" y="177.9922"/><line style="stroke:#181818;stroke-width:0.5;stroke-dasharray:5.0,5.0;" x1="26" x2="26" y1="73.5938" y2="370.7891"/><line style="stroke:#181818;stroke-width:0.5;stroke-dasharray:5.0,5.0;" x1="102" x2="102" y1="73.5938" y2="370.7891"/><line style="stroke:#181818;stroke-width:0.5;stroke-dasharray:5.0,5.0;" x1="478" x2="478" y1="73.5938" y2="370.7891"/><line style="stroke:#181818;stroke-width:0.5;stroke-dasharray:5.0,5.0;" x1="558" x2="558" y1="73.5938" y2="370.7891"/><rect fill="#E2E2F0" height="30.2969" rx="2.5" ry="2.5" style="stroke:#181818;stroke-width:0.5;" width="42" x="5" y="42.2969"/><text fill="#000000" font-family="sans-serif" font-size="14" lengthAdjust="spacing" textLength="28" x="12" y="62.292">&#29992;&#25143;</text><rect fill="#E2E2F0" height="30.2969" rx="2.5" ry="2.5" style="stroke:#181818;stroke-width:0.5;" width="42" x="5" y="369.7891"/><text fill="#000000" font-family="sans-serif" font-size="14" lengthAdjust="spacing" textLength="28" x="12" y="389.7842">&#29992;&#25143;</text><rect fill="#E2E2F0" height="30.2969" rx="2.5" ry="2.5" style="stroke:#181818;stroke-width:0.5;" width="70" x="67" y="42.2969"/><text fill="#000000" font-family="sans-serif" font-size="14" lengthAdjust="spacing" textLength="56" x="74" y="62.292">&#25552;&#26696;&#33410;&#28857;</text><rect fill="#E2E2F0" height="30.2969" rx="2.5" ry="2.5" style="stroke:#181818;stroke-width:0.5;" width="70" x="67" y="369.7891"/><text fill="#000000" font-family="sans-serif" font-size="14" lengthAdjust="spacing" textLength="56" x="74" y="389.7842">&#25552;&#26696;&#33410;&#28857;</text><rect fill="#E2E2F0" height="30.2969" rx="2.5" ry="2.5" style="stroke:#181818;stroke-width:0.5;" width="70" x="443" y="42.2969"/><text fill="#000000" font-family="sans-serif" font-size="14" lengthAdjust="spacing" textLength="56" x="450" y="62.292">&#20915;&#31574;&#33410;&#28857;</text><rect fill="#E2E2F0" height="30.2969" rx="2.5" ry="2.5" style="stroke:#181818;stroke-width:0.5;" width="70" x="443" y="369.7891"/><text fill="#000000" font-family="sans-serif" font-size="14" lengthAdjust="spacing" textLength="56" x="450" y="389.7842">&#20915;&#31574;&#33410;&#28857;</text><rect fill="#E2E2F0" height="30.2969" rx="2.5" ry="2.5" style="stroke:#181818;stroke-width:0.5;" width="70" x="523" y="42.2969"/><text fill="#000000" font-family="sans-serif" font-size="14" lengthAdjust="spacing" textLength="56" x="530" y="62.292">&#35760;&#24405;&#33410;&#28857;</text><rect fill="#E2E2F0" height="30.2969" rx="2.5" ry="2.5" style="stroke:#181818;stroke-width:0.5;" width="70" x="523" y="369.7891"/><text fill="#000000" font-family="sans-serif" font-size="14" lengthAdjust="spacing" textLength="56" x="530" y="389.7842">&#35760;&#24405;&#33410;&#28857;</text><polygon fill="#181818" points="90,100.7266,100,104.7266,90,108.7266,94,104.7266" style="stroke:#181818;stroke-width:1.0;"/><line style="stroke:#181818;stroke-width:1.0;" x1="26" x2="96" y1="104.7266" y2="104.7266"/><text fill="#000000" font-family="sans-serif" font-size="13" lengthAdjust="spacing" textLength="52" x="38" y="99.6606">&#25805;&#20316;&#35831;&#27714;</text><polygon fill="#181818" points="466,129.8594,476,133.8594,466,137.8594,470,133.8594" style="stroke:#181818;stroke-width:1.0;"/><line style="stroke:#181818;stroke-width:1.0;" x1="102" x2="472" y1="133.8594" y2="133.8594"/><text fill="#000000" font-family="sans-serif" font-size="13" lengthAdjust="spacing" textLength="249" x="165.5" y="128.7935">&#26500;&#36896;&#26032;&#30340;&#25552;&#26696; ID(n), &#24191;&#25773; Prepare(n) &#35831;&#27714;</text><polygon fill="#181818" points="113,158.9922,103,162.9922,113,166.9922,109,162.9922" style="stroke:#181818;stroke-width:1.0;"/><line style="stroke:#181818;stroke-width:1.0;stroke-dasharray:2.0,2.0;" x1="107" x2="477" y1="162.9922" y2="162.9922"/><text fill="#000000" font-family="sans-serif" font-size="13" lengthAdjust="spacing" textLength="220" x="180" y="157.9263">&#39318;&#27425;&#35774;&#20540;, &#36820;&#22238; Promise(n, null) &#24212;&#31572;</text><path d="M57,177.9922 L127,177.9922 L127,185.125 L117,195.125 L57,195.125 L57,177.9922 " fill="#EEEEEE" style="stroke:#000000;stroke-width:1.5;"/><rect fill="none" height="88.3984" style="stroke:#000000;stroke-width:1.5;" width="466" x="57" y="177.9922"/><text fill="#000000" font-family="sans-serif" font-size="13" font-weight="bold" lengthAdjust="spacing" textLength="25" x="72" y="191.0591">opt</text><text fill="#000000" font-family="sans-serif" font-size="11" font-weight="bold" lengthAdjust="spacing" textLength="65" x="142" y="190.2026">[&#38750;&#39318;&#27425;&#35774;&#20540;]</text><polygon fill="#181818" points="113,212.2578,103,216.2578,113,220.2578,109,216.2578" style="stroke:#181818;stroke-width:1.0;"/><line style="stroke:#181818;stroke-width:1.0;stroke-dasharray:2.0,2.0;" x1="107" x2="477" y1="216.2578" y2="216.2578"/><text fill="#000000" font-family="sans-serif" font-size="13" lengthAdjust="spacing" textLength="352" x="114" y="211.1919">&#36820;&#22238; Promise(acceptedProposalID, acceptedValue) &#24212;&#31572;</text><line style="stroke:#181818;stroke-width:1.0;" x1="102" x2="144" y1="245.3906" y2="245.3906"/><line style="stroke:#181818;stroke-width:1.0;" x1="144" x2="144" y1="245.3906" y2="258.3906"/><line style="stroke:#181818;stroke-width:1.0;" x1="103" x2="144" y1="258.3906" y2="258.3906"/><polygon fill="#181818" points="113,254.3906,103,258.3906,113,262.3906,109,258.3906" style="stroke:#181818;stroke-width:1.0;"/><text fill="#000000" font-family="sans-serif" font-size="13" lengthAdjust="spacing" textLength="207" x="109" y="240.3247">&#23558;acceptedValue&#20316;&#20026;&#25552;&#26696;&#30340;value</text><polygon fill="#181818" points="466,290.5234,476,294.5234,466,298.5234,470,294.5234" style="stroke:#181818;stroke-width:1.0;"/><line style="stroke:#181818;stroke-width:1.0;" x1="102" x2="472" y1="294.5234" y2="294.5234"/><text fill="#000000" font-family="sans-serif" font-size="13" lengthAdjust="spacing" textLength="164" x="208" y="289.4575">&#24191;&#25773; Accept(n, value) &#35831;&#27714;</text><polygon fill="#181818" points="113,319.6563,103,323.6563,113,327.6563,109,323.6563" style="stroke:#181818;stroke-width:1.0;"/><line style="stroke:#181818;stroke-width:1.0;stroke-dasharray:2.0,2.0;" x1="107" x2="477" y1="323.6563" y2="323.6563"/><text fill="#000000" font-family="sans-serif" font-size="13" lengthAdjust="spacing" textLength="180" x="200" y="318.5903">&#36820;&#22238; Accepted(n, value) &#24212;&#31572;</text><polygon fill="#181818" points="546,348.7891,556,352.7891,546,356.7891,550,352.7891" style="stroke:#181818;stroke-width:1.0;"/><line style="stroke:#181818;stroke-width:1.0;" x1="102" x2="552" y1="352.7891" y2="352.7891"/><text fill="#000000" font-family="sans-serif" font-size="13" lengthAdjust="spacing" textLength="151" x="254.5" y="347.7231">&#24418;&#25104;&#20915;&#35758;, &#20379;&#35760;&#24405;&#33410;&#28857;&#23398;&#20064;</text></g></svg>