<?xml version="1.0" encoding="us-ascii" standalone="no"?><svg xmlns="http://www.w3.org/2000/svg" xmlns:xlink="http://www.w3.org/1999/xlink" contentStyleType="text/css" height="422px" preserveAspectRatio="none" style="width:399px;height:422px;background:#FFFFFF;" version="1.1" viewBox="0 0 399 422" width="399px" zoomAndPan="magnify"><defs/><g><text fill="#000000" font-family="sans-serif" font-size="14" font-weight="bold" lengthAdjust="spacing" textLength="76" x="163.5" y="27.9951">2PC&#26102;&#24207;&#22270;</text><rect fill="#FFFFFF" height="116.6641" style="stroke:#181818;stroke-width:1.0;" width="10" x="236" y="104.7266"/><rect fill="#FFFFFF" height="29.1328" style="stroke:#181818;stroke-width:1.0;" width="10" x="236" y="250.5234"/><rect fill="#FFFFFF" height="29.1328" style="stroke:#181818;stroke-width:1.0;" width="10" x="236" y="332.9219"/><rect fill="none" height="75.3984" style="stroke:#000000;stroke-width:1.5;" width="269" x="10" y="294.6563"/><line style="stroke:#181818;stroke-width:0.5;stroke-dasharray:5.0,5.0;" x1="48" x2="48" y1="73.5938" y2="387.0547"/><line style="stroke:#181818;stroke-width:0.5;stroke-dasharray:5.0,5.0;" x1="241" x2="241" y1="73.5938" y2="387.0547"/><rect fill="#E2E2F0" height="30.2969" rx="2.5" ry="2.5" style="stroke:#181818;stroke-width:0.5;" width="56" x="20" y="42.2969"/><text fill="#000000" font-family="sans-serif" font-size="14" lengthAdjust="spacing" textLength="42" x="27" y="62.292">&#21327;&#35843;&#32773;</text><rect fill="#E2E2F0" height="30.2969" rx="2.5" ry="2.5" style="stroke:#181818;stroke-width:0.5;" width="56" x="20" y="386.0547"/><text fill="#000000" font-family="sans-serif" font-size="14" lengthAdjust="spacing" textLength="42" x="27" y="406.0498">&#21327;&#35843;&#32773;</text><rect fill="#E2E2F0" height="30.2969" rx="2.5" ry="2.5" style="stroke:#181818;stroke-width:0.5;" width="56" x="213" y="42.2969"/><text fill="#000000" font-family="sans-serif" font-size="14" lengthAdjust="spacing" textLength="42" x="220" y="62.292">&#21442;&#19982;&#32773;</text><rect fill="#E2E2F0" height="30.2969" rx="2.5" ry="2.5" style="stroke:#181818;stroke-width:0.5;" width="56" x="213" y="386.0547"/><text fill="#000000" font-family="sans-serif" font-size="14" lengthAdjust="spacing" textLength="42" x="220" y="406.0498">&#21442;&#19982;&#32773;</text><rect fill="#FFFFFF" height="116.6641" style="stroke:#181818;stroke-width:1.0;" width="10" x="236" y="104.7266"/><rect fill="#FFFFFF" height="29.1328" style="stroke:#181818;stroke-width:1.0;" width="10" x="236" y="250.5234"/><rect fill="#FFFFFF" height="29.1328" style="stroke:#181818;stroke-width:1.0;" width="10" x="236" y="332.9219"/><polygon fill="#181818" points="224,100.7266,234,104.7266,224,108.7266,228,104.7266" style="stroke:#181818;stroke-width:1.0;"/><line style="stroke:#181818;stroke-width:1.0;" x1="48" x2="230" y1="104.7266" y2="104.7266"/><text fill="#000000" font-family="sans-serif" font-size="13" lengthAdjust="spacing" textLength="169" x="57.5" y="99.6606">&#35201;&#27714;&#25152;&#26377;&#21442;&#19982;&#32773;&#36827;&#20837;&#20934;&#22791;&#38454;&#27573;</text><line style="stroke:#181818;stroke-width:1.0;" x1="246" x2="288" y1="179.2578" y2="179.2578"/><line style="stroke:#181818;stroke-width:1.0;" x1="288" x2="288" y1="179.2578" y2="192.2578"/><line style="stroke:#181818;stroke-width:1.0;" x1="247" x2="288" y1="192.2578" y2="192.2578"/><polygon fill="#181818" points="257,188.2578,247,192.2578,257,196.2578,253,192.2578" style="stroke:#181818;stroke-width:1.0;"/><text fill="#000000" font-family="sans-serif" font-size="13" lengthAdjust="spacing" textLength="52" x="296.5" y="128.7935">&#21508;&#33258;&#20934;&#22791;</text><text fill="#000000" font-family="sans-serif" font-size="13" lengthAdjust="spacing" textLength="139" x="253" y="143.9263">(&#22312;&#37325;&#20570;&#26085;&#24535;(Redo Log)</text><text fill="#000000" font-family="sans-serif" font-size="13" lengthAdjust="spacing" textLength="117" x="264" y="159.0591">&#20013;&#35760;&#24405;&#20840;&#37096;&#20107;&#21153;&#25552;&#20132;</text><text fill="#000000" font-family="sans-serif" font-size="13" lengthAdjust="spacing" textLength="109" x="268" y="174.1919">&#25805;&#20316;&#25152;&#35201;&#20570;&#30340;&#20869;&#23481;)</text><polygon fill="#181818" points="59,217.3906,49,221.3906,59,225.3906,55,221.3906" style="stroke:#181818;stroke-width:1.0;"/><line style="stroke:#181818;stroke-width:1.0;stroke-dasharray:2.0,2.0;" x1="53" x2="240" y1="221.3906" y2="221.3906"/><text fill="#000000" font-family="sans-serif" font-size="13" lengthAdjust="spacing" textLength="91" x="99" y="216.3247">&#24050;&#36827;&#20837;&#20934;&#22791;&#38454;&#27573;</text><polygon fill="#181818" points="224,246.5234,234,250.5234,224,254.5234,228,250.5234" style="stroke:#181818;stroke-width:1.0;"/><line style="stroke:#181818;stroke-width:1.0;" x1="48" x2="230" y1="250.5234" y2="250.5234"/><text fill="#000000" font-family="sans-serif" font-size="13" lengthAdjust="spacing" textLength="169" x="57.5" y="245.4575">&#35201;&#27714;&#25152;&#26377;&#21442;&#19982;&#32773;&#36827;&#20837;&#25552;&#20132;&#38454;&#27573;</text><polygon fill="#181818" points="59,275.6563,49,279.6563,59,283.6563,55,279.6563" style="stroke:#181818;stroke-width:1.0;"/><line style="stroke:#181818;stroke-width:1.0;stroke-dasharray:2.0,2.0;" x1="53" x2="240" y1="279.6563" y2="279.6563"/><text fill="#000000" font-family="sans-serif" font-size="13" lengthAdjust="spacing" textLength="91" x="99" y="274.5903">&#24050;&#36827;&#20837;&#25552;&#20132;&#38454;&#27573;</text><path d="M10,294.6563 L80,294.6563 L80,301.7891 L70,311.7891 L10,311.7891 L10,294.6563 " fill="#EEEEEE" style="stroke:#000000;stroke-width:1.5;"/><rect fill="none" height="75.3984" style="stroke:#000000;stroke-width:1.5;" width="269" x="10" y="294.6563"/><text fill="#000000" font-family="sans-serif" font-size="13" font-weight="bold" lengthAdjust="spacing" textLength="25" x="25" y="307.7231">opt</text><text fill="#000000" font-family="sans-serif" font-size="11" font-weight="bold" lengthAdjust="spacing" textLength="100" x="95" y="306.8667">[Abort/Timeout]</text><polygon fill="#181818" points="224,328.9219,234,332.9219,224,336.9219,228,332.9219" style="stroke:#181818;stroke-width:1.0;"/><line style="stroke:#181818;stroke-width:1.0;" x1="48" x2="230" y1="332.9219" y2="332.9219"/><text fill="#000000" font-family="sans-serif" font-size="13" lengthAdjust="spacing" textLength="143" x="70.5" y="327.856">&#35201;&#27714;&#25152;&#26377;&#21442;&#19982;&#32773;&#22238;&#28378;&#20107;&#21153;</text><polygon fill="#181818" points="59,358.0547,49,362.0547,59,366.0547,55,362.0547" style="stroke:#181818;stroke-width:1.0;"/><line style="stroke:#181818;stroke-width:1.0;stroke-dasharray:2.0,2.0;" x1="53" x2="240" y1="362.0547" y2="362.0547"/><text fill="#000000" font-family="sans-serif" font-size="13" lengthAdjust="spacing" textLength="65" x="112" y="356.9888">&#24050;&#22238;&#28378;&#20107;&#21153;</text></g></svg>