<?xml version="1.0" encoding="us-ascii" standalone="no"?><svg xmlns="http://www.w3.org/2000/svg" xmlns:xlink="http://www.w3.org/1999/xlink" contentStyleType="text/css" height="447px" preserveAspectRatio="none" style="width:871px;height:447px;background:#FFFFFF;" version="1.1" viewBox="0 0 871 447" width="871px" zoomAndPan="magnify"><defs/><g><text fill="#000000" font-family="sans-serif" font-size="14" font-weight="bold" lengthAdjust="spacing" textLength="245" x="314.5" y="27.9951">OAuth2-&#38544;&#24335;&#25480;&#26435;&#27169;&#24335;&#30340;&#35843;&#29992;&#26102;&#24207;&#22270;</text><rect fill="#FFFFFF" height="29.1328" style="stroke:#181818;stroke-width:1.0;" width="10" x="808" y="328.6563"/><rect fill="none" height="104.5313" style="stroke:#000000;stroke-width:1.5;" width="855" x="10" y="290.3906"/><line style="stroke:#181818;stroke-width:0.5;stroke-dasharray:5.0,5.0;" x1="62" x2="62" y1="73.5938" y2="411.9219"/><line style="stroke:#181818;stroke-width:0.5;stroke-dasharray:5.0,5.0;" x1="216" x2="216" y1="73.5938" y2="411.9219"/><line style="stroke:#181818;stroke-width:0.5;stroke-dasharray:5.0,5.0;" x1="539" x2="539" y1="73.5938" y2="411.9219"/><line style="stroke:#181818;stroke-width:0.5;stroke-dasharray:5.0,5.0;" x1="719" x2="719" y1="73.5938" y2="411.9219"/><line style="stroke:#181818;stroke-width:0.5;stroke-dasharray:5.0,5.0;" x1="813" x2="813" y1="73.5938" y2="411.9219"/><rect fill="#E2E2F0" height="30.2969" rx="2.5" ry="2.5" style="stroke:#181818;stroke-width:0.5;" width="84" x="20" y="42.2969"/><text fill="#000000" font-family="sans-serif" font-size="14" lengthAdjust="spacing" textLength="70" x="27" y="62.292">&#36164;&#28304;&#25152;&#26377;&#32773;</text><rect fill="#E2E2F0" height="30.2969" rx="2.5" ry="2.5" style="stroke:#181818;stroke-width:0.5;" width="84" x="20" y="410.9219"/><text fill="#000000" font-family="sans-serif" font-size="14" lengthAdjust="spacing" textLength="70" x="27" y="430.917">&#36164;&#28304;&#25152;&#26377;&#32773;</text><rect fill="#E2E2F0" height="30.2969" rx="2.5" ry="2.5" style="stroke:#181818;stroke-width:0.5;" width="70" x="181" y="42.2969"/><text fill="#000000" font-family="sans-serif" font-size="14" lengthAdjust="spacing" textLength="56" x="188" y="62.292">&#25805;&#20316;&#20195;&#29702;</text><rect fill="#E2E2F0" height="30.2969" rx="2.5" ry="2.5" style="stroke:#181818;stroke-width:0.5;" width="70" x="181" y="410.9219"/><text fill="#000000" font-family="sans-serif" font-size="14" lengthAdjust="spacing" textLength="56" x="188" y="430.917">&#25805;&#20316;&#20195;&#29702;</text><rect fill="#E2E2F0" height="30.2969" rx="2.5" ry="2.5" style="stroke:#181818;stroke-width:0.5;" width="84" x="497" y="42.2969"/><text fill="#000000" font-family="sans-serif" font-size="14" lengthAdjust="spacing" textLength="70" x="504" y="62.292">&#31532;&#19977;&#26041;&#24212;&#29992;</text><rect fill="#E2E2F0" height="30.2969" rx="2.5" ry="2.5" style="stroke:#181818;stroke-width:0.5;" width="84" x="497" y="410.9219"/><text fill="#000000" font-family="sans-serif" font-size="14" lengthAdjust="spacing" textLength="70" x="504" y="430.917">&#31532;&#19977;&#26041;&#24212;&#29992;</text><rect fill="#E2E2F0" height="30.2969" rx="2.5" ry="2.5" style="stroke:#181818;stroke-width:0.5;" width="84" x="677" y="42.2969"/><text fill="#000000" font-family="sans-serif" font-size="14" lengthAdjust="spacing" textLength="70" x="684" y="62.292">&#25480;&#26435;&#26381;&#21153;&#22120;</text><rect fill="#E2E2F0" height="30.2969" rx="2.5" ry="2.5" style="stroke:#181818;stroke-width:0.5;" width="84" x="677" y="410.9219"/><text fill="#000000" font-family="sans-serif" font-size="14" lengthAdjust="spacing" textLength="70" x="684" y="430.917">&#25480;&#26435;&#26381;&#21153;&#22120;</text><rect fill="#E2E2F0" height="30.2969" rx="2.5" ry="2.5" style="stroke:#181818;stroke-width:0.5;" width="84" x="771" y="42.2969"/><text fill="#000000" font-family="sans-serif" font-size="14" lengthAdjust="spacing" textLength="70" x="778" y="62.292">&#36164;&#28304;&#26381;&#21153;&#22120;</text><rect fill="#E2E2F0" height="30.2969" rx="2.5" ry="2.5" style="stroke:#181818;stroke-width:0.5;" width="84" x="771" y="410.9219"/><text fill="#000000" font-family="sans-serif" font-size="14" lengthAdjust="spacing" textLength="70" x="778" y="430.917">&#36164;&#28304;&#26381;&#21153;&#22120;</text><rect fill="#FFFFFF" height="29.1328" style="stroke:#181818;stroke-width:1.0;" width="10" x="808" y="328.6563"/><polygon fill="#181818" points="204,100.7266,214,104.7266,204,108.7266,208,104.7266" style="stroke:#181818;stroke-width:1.0;"/><line style="stroke:#181818;stroke-width:1.0;" x1="62" x2="210" y1="104.7266" y2="104.7266"/><text fill="#000000" font-family="sans-serif" font-size="13" lengthAdjust="spacing" textLength="130" x="74" y="99.6606">&#36890;&#36807;&#25805;&#20316;&#20195;&#29702;&#35775;&#38382;&#24212;&#29992;</text><polygon fill="#181818" points="527,129.8594,537,133.8594,527,137.8594,531,133.8594" style="stroke:#181818;stroke-width:1.0;"/><line style="stroke:#181818;stroke-width:1.0;" x1="216" x2="533" y1="133.8594" y2="133.8594"/><text fill="#000000" font-family="sans-serif" font-size="13" lengthAdjust="spacing" textLength="130" x="312.5" y="128.7935">&#36935;&#21040;&#38656;&#35201;&#20351;&#29992;&#30340;&#39069;&#36164;&#28304;</text><polygon fill="#181818" points="707,158.9922,717,162.9922,707,166.9922,711,162.9922" style="stroke:#181818;stroke-width:1.0;"/><line style="stroke:#181818;stroke-width:1.0;" x1="539" x2="713" y1="162.9922" y2="162.9922"/><text fill="#000000" font-family="sans-serif" font-size="13" lengthAdjust="spacing" textLength="156" x="551" y="157.9263">&#36716;&#21521;&#25480;&#26435;&#26381;&#21153;&#22120;&#30340;&#25480;&#26435;&#39029;&#38754;</text><polygon fill="#181818" points="707,188.125,717,192.125,707,196.125,711,192.125" style="stroke:#181818;stroke-width:1.0;"/><line style="stroke:#181818;stroke-width:1.0;" x1="62" x2="713" y1="192.125" y2="192.125"/><text fill="#000000" font-family="sans-serif" font-size="13" lengthAdjust="spacing" textLength="112" x="334.5" y="187.0591">&#35748;&#35777;&#36523;&#20221;, &#21516;&#24847;&#25480;&#26435;</text><polygon fill="#181818" points="227,217.2578,217,221.2578,227,225.2578,223,221.2578" style="stroke:#181818;stroke-width:1.0;"/><line style="stroke:#181818;stroke-width:1.0;stroke-dasharray:2.0,2.0;" x1="221" x2="718" y1="221.2578" y2="221.2578"/><text fill="#000000" font-family="sans-serif" font-size="13" lengthAdjust="spacing" textLength="338" x="298.5" y="216.1919">&#36820;&#22238;&#31532;&#19977;&#26041;&#24212;&#29992;&#30340;&#22238;&#35843;&#22320;&#22336;, &#36890;&#36807; Fragment &#38468;&#24102;&#35775;&#38382;&#20196;&#29260;</text><polygon fill="#181818" points="527,246.3906,537,250.3906,527,254.3906,531,250.3906" style="stroke:#181818;stroke-width:1.0;"/><line style="stroke:#181818;stroke-width:1.0;" x1="216" x2="533" y1="250.3906" y2="250.3906"/><text fill="#000000" font-family="sans-serif" font-size="13" lengthAdjust="spacing" textLength="299" x="228" y="245.3247">&#36716;&#21521;&#22238;&#35843;&#22320;&#22336;, &#36890;&#36807;&#33050;&#26412;&#25552;&#21462;&#20986; Fragment &#20013;&#30340;&#20196;&#29260;</text><path d="M10,290.3906 L80,290.3906 L80,297.5234 L70,307.5234 L10,307.5234 L10,290.3906 " fill="#EEEEEE" style="stroke:#000000;stroke-width:1.5;"/><rect fill="none" height="104.5313" style="stroke:#000000;stroke-width:1.5;" width="855" x="10" y="290.3906"/><text fill="#000000" font-family="sans-serif" font-size="13" font-weight="bold" lengthAdjust="spacing" textLength="25" x="25" y="303.4575">opt</text><text fill="#000000" font-family="sans-serif" font-size="11" font-weight="bold" lengthAdjust="spacing" textLength="76" x="95" y="302.6011">[&#36164;&#28304;&#35775;&#38382;&#36807;&#31243;]</text><polygon fill="#181818" points="796,324.6563,806,328.6563,796,332.6563,800,328.6563" style="stroke:#181818;stroke-width:1.0;"/><line style="stroke:#181818;stroke-width:1.0;" x1="539" x2="802" y1="328.6563" y2="328.6563"/><text fill="#000000" font-family="sans-serif" font-size="13" lengthAdjust="spacing" textLength="78" x="634.5" y="323.5903">&#25552;&#20379;&#35775;&#38382;&#20196;&#29260;</text><polygon fill="#181818" points="550,353.7891,540,357.7891,550,361.7891,546,357.7891" style="stroke:#181818;stroke-width:1.0;"/><line style="stroke:#181818;stroke-width:1.0;stroke-dasharray:2.0,2.0;" x1="544" x2="812" y1="357.7891" y2="357.7891"/><text fill="#000000" font-family="sans-serif" font-size="13" lengthAdjust="spacing" textLength="52" x="650" y="352.7231">&#25552;&#20379;&#36164;&#28304;</text><polygon fill="#181818" points="73,382.9219,63,386.9219,73,390.9219,69,386.9219" style="stroke:#181818;stroke-width:1.0;"/><line style="stroke:#181818;stroke-width:1.0;stroke-dasharray:2.0,2.0;" x1="67" x2="538" y1="386.9219" y2="386.9219"/><text fill="#000000" font-family="sans-serif" font-size="13" lengthAdjust="spacing" textLength="143" x="229" y="381.856">&#36820;&#22238;&#23545;&#36164;&#28304;&#30340;&#22788;&#29702;&#32473;&#29992;&#25143;</text></g></svg>