<?xml version="1.0" encoding="us-ascii" standalone="no"?><svg xmlns="http://www.w3.org/2000/svg" xmlns:xlink="http://www.w3.org/1999/xlink" contentStyleType="text/css" height="359px" preserveAspectRatio="none" style="width:548px;height:359px;background:#FFFFFF;" version="1.1" viewBox="0 0 548 359" width="548px" zoomAndPan="magnify"><defs/><g><text fill="#000000" font-family="sans-serif" font-size="14" font-weight="bold" lengthAdjust="spacing" textLength="215" x="168" y="27.9951">OAuth2-&#23494;&#30721;&#27169;&#24335;&#30340;&#35843;&#29992;&#26102;&#24207;&#22270;</text><rect fill="#FFFFFF" height="29.1328" style="stroke:#181818;stroke-width:1.0;" width="10" x="485" y="241.2578"/><rect fill="none" height="104.5313" style="stroke:#000000;stroke-width:1.5;" width="532" x="10" y="202.9922"/><line style="stroke:#181818;stroke-width:0.5;stroke-dasharray:5.0,5.0;" x1="62" x2="62" y1="73.5938" y2="324.5234"/><line style="stroke:#181818;stroke-width:0.5;stroke-dasharray:5.0,5.0;" x1="229" x2="229" y1="73.5938" y2="324.5234"/><line style="stroke:#181818;stroke-width:0.5;stroke-dasharray:5.0,5.0;" x1="396" x2="396" y1="73.5938" y2="324.5234"/><line style="stroke:#181818;stroke-width:0.5;stroke-dasharray:5.0,5.0;" x1="490" x2="490" y1="73.5938" y2="324.5234"/><rect fill="#E2E2F0" height="30.2969" rx="2.5" ry="2.5" style="stroke:#181818;stroke-width:0.5;" width="84" x="20" y="42.2969"/><text fill="#000000" font-family="sans-serif" font-size="14" lengthAdjust="spacing" textLength="70" x="27" y="62.292">&#36164;&#28304;&#25152;&#26377;&#32773;</text><rect fill="#E2E2F0" height="30.2969" rx="2.5" ry="2.5" style="stroke:#181818;stroke-width:0.5;" width="84" x="20" y="323.5234"/><text fill="#000000" font-family="sans-serif" font-size="14" lengthAdjust="spacing" textLength="70" x="27" y="343.5186">&#36164;&#28304;&#25152;&#26377;&#32773;</text><rect fill="#E2E2F0" height="30.2969" rx="2.5" ry="2.5" style="stroke:#181818;stroke-width:0.5;" width="84" x="187" y="42.2969"/><text fill="#000000" font-family="sans-serif" font-size="14" lengthAdjust="spacing" textLength="70" x="194" y="62.292">&#31532;&#19977;&#26041;&#24212;&#29992;</text><rect fill="#E2E2F0" height="30.2969" rx="2.5" ry="2.5" style="stroke:#181818;stroke-width:0.5;" width="84" x="187" y="323.5234"/><text fill="#000000" font-family="sans-serif" font-size="14" lengthAdjust="spacing" textLength="70" x="194" y="343.5186">&#31532;&#19977;&#26041;&#24212;&#29992;</text><rect fill="#E2E2F0" height="30.2969" rx="2.5" ry="2.5" style="stroke:#181818;stroke-width:0.5;" width="84" x="354" y="42.2969"/><text fill="#000000" font-family="sans-serif" font-size="14" lengthAdjust="spacing" textLength="70" x="361" y="62.292">&#25480;&#26435;&#26381;&#21153;&#22120;</text><rect fill="#E2E2F0" height="30.2969" rx="2.5" ry="2.5" style="stroke:#181818;stroke-width:0.5;" width="84" x="354" y="323.5234"/><text fill="#000000" font-family="sans-serif" font-size="14" lengthAdjust="spacing" textLength="70" x="361" y="343.5186">&#25480;&#26435;&#26381;&#21153;&#22120;</text><rect fill="#E2E2F0" height="30.2969" rx="2.5" ry="2.5" style="stroke:#181818;stroke-width:0.5;" width="84" x="448" y="42.2969"/><text fill="#000000" font-family="sans-serif" font-size="14" lengthAdjust="spacing" textLength="70" x="455" y="62.292">&#36164;&#28304;&#26381;&#21153;&#22120;</text><rect fill="#E2E2F0" height="30.2969" rx="2.5" ry="2.5" style="stroke:#181818;stroke-width:0.5;" width="84" x="448" y="323.5234"/><text fill="#000000" font-family="sans-serif" font-size="14" lengthAdjust="spacing" textLength="70" x="455" y="343.5186">&#36164;&#28304;&#26381;&#21153;&#22120;</text><rect fill="#FFFFFF" height="29.1328" style="stroke:#181818;stroke-width:1.0;" width="10" x="485" y="241.2578"/><polygon fill="#181818" points="217,100.7266,227,104.7266,217,108.7266,221,104.7266" style="stroke:#181818;stroke-width:1.0;"/><line style="stroke:#181818;stroke-width:1.0;" x1="62" x2="223" y1="104.7266" y2="104.7266"/><text fill="#000000" font-family="sans-serif" font-size="13" lengthAdjust="spacing" textLength="78" x="106.5" y="99.6606">&#25552;&#20379;&#23494;&#30721;&#20973;&#35777;</text><polygon fill="#181818" points="384,129.8594,394,133.8594,384,137.8594,388,133.8594" style="stroke:#181818;stroke-width:1.0;"/><line style="stroke:#181818;stroke-width:1.0;" x1="229" x2="390" y1="133.8594" y2="133.8594"/><text fill="#000000" font-family="sans-serif" font-size="13" lengthAdjust="spacing" textLength="117" x="254" y="128.7935">&#21457;&#25918;&#29992;&#25143;&#30340;&#23494;&#30721;&#20973;&#35777;</text><polygon fill="#181818" points="240,158.9922,230,162.9922,240,166.9922,236,162.9922" style="stroke:#181818;stroke-width:1.0;"/><line style="stroke:#181818;stroke-width:1.0;stroke-dasharray:2.0,2.0;" x1="234" x2="395" y1="162.9922" y2="162.9922"/><text fill="#000000" font-family="sans-serif" font-size="13" lengthAdjust="spacing" textLength="143" x="241" y="157.9263">&#21457;&#25918;&#35775;&#38382;&#20196;&#29260;&#21644;&#21047;&#26032;&#20196;&#29260;</text><path d="M10,202.9922 L80,202.9922 L80,210.125 L70,220.125 L10,220.125 L10,202.9922 " fill="#EEEEEE" style="stroke:#000000;stroke-width:1.5;"/><rect fill="none" height="104.5313" style="stroke:#000000;stroke-width:1.5;" width="532" x="10" y="202.9922"/><text fill="#000000" font-family="sans-serif" font-size="13" font-weight="bold" lengthAdjust="spacing" textLength="25" x="25" y="216.0591">opt</text><text fill="#000000" font-family="sans-serif" font-size="11" font-weight="bold" lengthAdjust="spacing" textLength="76" x="95" y="215.2026">[&#36164;&#28304;&#35775;&#38382;&#36807;&#31243;]</text><polygon fill="#181818" points="473,237.2578,483,241.2578,473,245.2578,477,241.2578" style="stroke:#181818;stroke-width:1.0;"/><line style="stroke:#181818;stroke-width:1.0;" x1="229" x2="479" y1="241.2578" y2="241.2578"/><text fill="#000000" font-family="sans-serif" font-size="13" lengthAdjust="spacing" textLength="78" x="318" y="236.1919">&#25552;&#20379;&#35775;&#38382;&#20196;&#29260;</text><polygon fill="#181818" points="240,266.3906,230,270.3906,240,274.3906,236,270.3906" style="stroke:#181818;stroke-width:1.0;"/><line style="stroke:#181818;stroke-width:1.0;stroke-dasharray:2.0,2.0;" x1="234" x2="489" y1="270.3906" y2="270.3906"/><text fill="#000000" font-family="sans-serif" font-size="13" lengthAdjust="spacing" textLength="52" x="333.5" y="265.3247">&#25552;&#20379;&#36164;&#28304;</text><polygon fill="#181818" points="73,295.5234,63,299.5234,73,303.5234,69,299.5234" style="stroke:#181818;stroke-width:1.0;"/><line style="stroke:#181818;stroke-width:1.0;stroke-dasharray:2.0,2.0;" x1="67" x2="228" y1="299.5234" y2="299.5234"/><text fill="#000000" font-family="sans-serif" font-size="13" lengthAdjust="spacing" textLength="143" x="74" y="294.4575">&#36820;&#22238;&#23545;&#36164;&#28304;&#30340;&#22788;&#29702;&#32473;&#29992;&#25143;</text></g></svg>