<?xml version="1.0" encoding="us-ascii" standalone="no"?><svg xmlns="http://www.w3.org/2000/svg" xmlns:xlink="http://www.w3.org/1999/xlink" contentStyleType="text/css" height="466px" preserveAspectRatio="none" style="width:339px;height:466px;background:#FFFFFF;" version="1.1" viewBox="0 0 339 466" width="339px" zoomAndPan="magnify"><defs/><g><text fill="#000000" font-family="sans-serif" font-size="14" font-weight="bold" lengthAdjust="spacing" textLength="193" x="74.5" y="27.9951">&#19977;&#27573;&#24335;&#25552;&#20132;(3PC)&#30340;&#25805;&#20316;&#26102;&#24207;</text><rect fill="#FFFFFF" height="29.1328" style="stroke:#181818;stroke-width:1.0;" width="10" x="244" y="104.7266"/><rect fill="#FFFFFF" height="29.1328" style="stroke:#181818;stroke-width:1.0;" width="10" x="244" y="162.9922"/><rect fill="#FFFFFF" height="29.1328" style="stroke:#181818;stroke-width:1.0;" width="10" x="244" y="221.2578"/><rect fill="#FFFFFF" height="29.1328" style="stroke:#181818;stroke-width:1.0;" width="10" x="244" y="303.6563"/><rect fill="none" height="75.3984" style="stroke:#000000;stroke-width:1.5;" width="277" x="10" y="265.3906"/><rect fill="none" height="59.2656" style="stroke:#000000;stroke-width:1.5;" width="122" x="211" y="354.7891"/><line style="stroke:#181818;stroke-width:0.5;stroke-dasharray:5.0,5.0;" x1="48" x2="48" y1="73.5938" y2="431.0547"/><line style="stroke:#181818;stroke-width:0.5;stroke-dasharray:5.0,5.0;" x1="249" x2="249" y1="73.5938" y2="431.0547"/><rect fill="#E2E2F0" height="30.2969" rx="2.5" ry="2.5" style="stroke:#181818;stroke-width:0.5;" width="56" x="20" y="42.2969"/><text fill="#000000" font-family="sans-serif" font-size="14" lengthAdjust="spacing" textLength="42" x="27" y="62.292">&#21327;&#35843;&#32773;</text><rect fill="#E2E2F0" height="30.2969" rx="2.5" ry="2.5" style="stroke:#181818;stroke-width:0.5;" width="56" x="20" y="430.0547"/><text fill="#000000" font-family="sans-serif" font-size="14" lengthAdjust="spacing" textLength="42" x="27" y="450.0498">&#21327;&#35843;&#32773;</text><rect fill="#E2E2F0" height="30.2969" rx="2.5" ry="2.5" style="stroke:#181818;stroke-width:0.5;" width="56" x="221" y="42.2969"/><text fill="#000000" font-family="sans-serif" font-size="14" lengthAdjust="spacing" textLength="42" x="228" y="62.292">&#21442;&#19982;&#32773;</text><rect fill="#E2E2F0" height="30.2969" rx="2.5" ry="2.5" style="stroke:#181818;stroke-width:0.5;" width="56" x="221" y="430.0547"/><text fill="#000000" font-family="sans-serif" font-size="14" lengthAdjust="spacing" textLength="42" x="228" y="450.0498">&#21442;&#19982;&#32773;</text><rect fill="#FFFFFF" height="29.1328" style="stroke:#181818;stroke-width:1.0;" width="10" x="244" y="104.7266"/><rect fill="#FFFFFF" height="29.1328" style="stroke:#181818;stroke-width:1.0;" width="10" x="244" y="162.9922"/><rect fill="#FFFFFF" height="29.1328" style="stroke:#181818;stroke-width:1.0;" width="10" x="244" y="221.2578"/><rect fill="#FFFFFF" height="29.1328" style="stroke:#181818;stroke-width:1.0;" width="10" x="244" y="303.6563"/><polygon fill="#181818" points="232,100.7266,242,104.7266,232,108.7266,236,104.7266" style="stroke:#181818;stroke-width:1.0;"/><line style="stroke:#181818;stroke-width:1.0;" x1="48" x2="238" y1="104.7266" y2="104.7266"/><text fill="#000000" font-family="sans-serif" font-size="13" lengthAdjust="spacing" textLength="177" x="57.5" y="99.6606">&#35810;&#38382;&#38454;&#27573;: &#26159;&#21542;&#26377;&#25226;&#25569;&#23436;&#25104;&#20107;&#21153;</text><polygon fill="#181818" points="59,129.8594,49,133.8594,59,137.8594,55,133.8594" style="stroke:#181818;stroke-width:1.0;"/><line style="stroke:#181818;stroke-width:1.0;stroke-dasharray:2.0,2.0;" x1="53" x2="248" y1="133.8594" y2="133.8594"/><text fill="#000000" font-family="sans-serif" font-size="13" lengthAdjust="spacing" textLength="13" x="142" y="128.7935">&#26159;</text><polygon fill="#181818" points="232,158.9922,242,162.9922,232,166.9922,236,162.9922" style="stroke:#181818;stroke-width:1.0;"/><line style="stroke:#181818;stroke-width:1.0;" x1="48" x2="238" y1="162.9922" y2="162.9922"/><text fill="#000000" font-family="sans-serif" font-size="13" lengthAdjust="spacing" textLength="172" x="60" y="157.9263">&#20934;&#22791;&#38454;&#27573;: &#20889;&#20837;&#26085;&#24535;, &#38145;&#23450;&#36164;&#28304;</text><polygon fill="#181818" points="59,188.125,49,192.125,59,196.125,55,192.125" style="stroke:#181818;stroke-width:1.0;"/><line style="stroke:#181818;stroke-width:1.0;stroke-dasharray:2.0,2.0;" x1="53" x2="248" y1="192.125" y2="192.125"/><text fill="#000000" font-family="sans-serif" font-size="13" lengthAdjust="spacing" textLength="59" x="119" y="187.0591">&#30830;&#35748;(Ack)</text><polygon fill="#181818" points="232,217.2578,242,221.2578,232,225.2578,236,221.2578" style="stroke:#181818;stroke-width:1.0;"/><line style="stroke:#181818;stroke-width:1.0;" x1="48" x2="238" y1="221.2578" y2="221.2578"/><text fill="#000000" font-family="sans-serif" font-size="13" lengthAdjust="spacing" textLength="112" x="90" y="216.1919">&#25552;&#20132;&#38454;&#27573;: &#25552;&#20132;&#20107;&#21153;</text><polygon fill="#181818" points="59,246.3906,49,250.3906,59,254.3906,55,250.3906" style="stroke:#181818;stroke-width:1.0;"/><line style="stroke:#181818;stroke-width:1.0;stroke-dasharray:2.0,2.0;" x1="53" x2="248" y1="250.3906" y2="250.3906"/><text fill="#000000" font-family="sans-serif" font-size="13" lengthAdjust="spacing" textLength="39" x="129" y="245.3247">&#24050;&#25552;&#20132;</text><path d="M10,265.3906 L80,265.3906 L80,272.5234 L70,282.5234 L10,282.5234 L10,265.3906 " fill="#EEEEEE" style="stroke:#000000;stroke-width:1.5;"/><rect fill="none" height="75.3984" style="stroke:#000000;stroke-width:1.5;" width="277" x="10" y="265.3906"/><text fill="#000000" font-family="sans-serif" font-size="13" font-weight="bold" lengthAdjust="spacing" textLength="25" x="25" y="278.4575">opt</text><text fill="#000000" font-family="sans-serif" font-size="11" font-weight="bold" lengthAdjust="spacing" textLength="32" x="95" y="277.6011">[&#22833;&#36133;]</text><polygon fill="#181818" points="232,299.6563,242,303.6563,232,307.6563,236,303.6563" style="stroke:#181818;stroke-width:1.0;"/><line style="stroke:#181818;stroke-width:1.0;" x1="48" x2="238" y1="303.6563" y2="303.6563"/><text fill="#000000" font-family="sans-serif" font-size="13" lengthAdjust="spacing" textLength="143" x="74.5" y="298.5903">&#35201;&#27714;&#25152;&#26377;&#21442;&#19982;&#32773;&#22238;&#28378;&#20107;&#21153;</text><polygon fill="#181818" points="59,328.7891,49,332.7891,59,336.7891,55,332.7891" style="stroke:#181818;stroke-width:1.0;"/><line style="stroke:#181818;stroke-width:1.0;stroke-dasharray:2.0,2.0;" x1="53" x2="248" y1="332.7891" y2="332.7891"/><text fill="#000000" font-family="sans-serif" font-size="13" lengthAdjust="spacing" textLength="65" x="116" y="327.7231">&#24050;&#22238;&#28378;&#20107;&#21153;</text><path d="M211,354.7891 L281,354.7891 L281,361.9219 L271,371.9219 L211,371.9219 L211,354.7891 " fill="#EEEEEE" style="stroke:#000000;stroke-width:1.5;"/><rect fill="none" height="59.2656" style="stroke:#000000;stroke-width:1.5;" width="122" x="211" y="354.7891"/><text fill="#000000" font-family="sans-serif" font-size="13" font-weight="bold" lengthAdjust="spacing" textLength="25" x="226" y="367.856">opt</text><text fill="#000000" font-family="sans-serif" font-size="11" font-weight="bold" lengthAdjust="spacing" textLength="32" x="296" y="366.9995">[&#36229;&#26102;]</text><line style="stroke:#181818;stroke-width:1.0;stroke-dasharray:2.0,2.0;" x1="249" x2="291" y1="393.0547" y2="393.0547"/><line style="stroke:#181818;stroke-width:1.0;stroke-dasharray:2.0,2.0;" x1="291" x2="291" y1="393.0547" y2="406.0547"/><line style="stroke:#181818;stroke-width:1.0;stroke-dasharray:2.0,2.0;" x1="250" x2="291" y1="406.0547" y2="406.0547"/><polygon fill="#181818" points="260,402.0547,250,406.0547,260,410.0547,256,406.0547" style="stroke:#181818;stroke-width:1.0;"/><text fill="#000000" font-family="sans-serif" font-size="13" lengthAdjust="spacing" textLength="52" x="256" y="387.9888">&#25552;&#20132;&#20107;&#21153;</text></g></svg>