<?xml version="1.0" encoding="us-ascii" standalone="no"?><svg xmlns="http://www.w3.org/2000/svg" xmlns:xlink="http://www.w3.org/1999/xlink" contentStyleType="text/css" height="247px" preserveAspectRatio="none" style="width:258px;height:247px;background:#FFFFFF;" version="1.1" viewBox="0 0 258 247" width="258px" zoomAndPan="magnify"><defs/><g><text fill="#000000" font-family="sans-serif" font-size="14" font-weight="bold" lengthAdjust="spacing" textLength="230" x="10.5" y="27.9951">OAuth2-&#35774;&#22791;&#30721;&#27169;&#24335;&#30340;&#35843;&#29992;&#26102;&#24207;&#22270;</text><rect fill="none" height="46.2656" style="stroke:#000000;stroke-width:1.5;" width="232" x="10" y="148.8594"/><line style="stroke:#181818;stroke-width:0.5;stroke-dasharray:5.0,5.0;" x1="41" x2="41" y1="73.5938" y2="212.125"/><line style="stroke:#181818;stroke-width:0.5;stroke-dasharray:5.0,5.0;" x1="190" x2="190" y1="73.5938" y2="212.125"/><rect fill="#E2E2F0" height="30.2969" rx="2.5" ry="2.5" style="stroke:#181818;stroke-width:0.5;" width="42" x="20" y="42.2969"/><text fill="#000000" font-family="sans-serif" font-size="14" lengthAdjust="spacing" textLength="28" x="27" y="62.292">&#35774;&#22791;</text><rect fill="#E2E2F0" height="30.2969" rx="2.5" ry="2.5" style="stroke:#181818;stroke-width:0.5;" width="42" x="20" y="211.125"/><text fill="#000000" font-family="sans-serif" font-size="14" lengthAdjust="spacing" textLength="28" x="27" y="231.1201">&#35774;&#22791;</text><rect fill="#E2E2F0" height="30.2969" rx="2.5" ry="2.5" style="stroke:#181818;stroke-width:0.5;" width="84" x="148" y="42.2969"/><text fill="#000000" font-family="sans-serif" font-size="14" lengthAdjust="spacing" textLength="70" x="155" y="62.292">&#25480;&#26435;&#26381;&#21153;&#22120;</text><rect fill="#E2E2F0" height="30.2969" rx="2.5" ry="2.5" style="stroke:#181818;stroke-width:0.5;" width="84" x="148" y="211.125"/><text fill="#000000" font-family="sans-serif" font-size="14" lengthAdjust="spacing" textLength="70" x="155" y="231.1201">&#25480;&#26435;&#26381;&#21153;&#22120;</text><polygon fill="#181818" points="178,100.7266,188,104.7266,178,108.7266,182,104.7266" style="stroke:#181818;stroke-width:1.0;"/><line style="stroke:#181818;stroke-width:1.0;" x1="41" x2="184" y1="104.7266" y2="104.7266"/><text fill="#000000" font-family="sans-serif" font-size="13" lengthAdjust="spacing" textLength="52" x="89.5" y="99.6606">&#35201;&#27714;&#25480;&#26435;</text><polygon fill="#181818" points="52,129.8594,42,133.8594,52,137.8594,48,133.8594" style="stroke:#181818;stroke-width:1.0;"/><line style="stroke:#181818;stroke-width:1.0;stroke-dasharray:2.0,2.0;" x1="46" x2="189" y1="133.8594" y2="133.8594"/><text fill="#000000" font-family="sans-serif" font-size="13" lengthAdjust="spacing" textLength="125" x="53" y="128.7935">&#25552;&#20379;&#39564;&#35777;URI&#21644;&#29992;&#25143;&#30721;</text><path d="M10,148.8594 L87,148.8594 L87,155.9922 L77,165.9922 L10,165.9922 L10,148.8594 " fill="#EEEEEE" style="stroke:#000000;stroke-width:1.5;"/><rect fill="none" height="46.2656" style="stroke:#000000;stroke-width:1.5;" width="232" x="10" y="148.8594"/><text fill="#000000" font-family="sans-serif" font-size="13" font-weight="bold" lengthAdjust="spacing" textLength="32" x="25" y="161.9263">loop</text><text fill="#000000" font-family="sans-serif" font-size="11" font-weight="bold" lengthAdjust="spacing" textLength="76" x="102" y="161.0698">[&#24490;&#29615;&#30452;&#21040;&#36229;&#26102;]</text><polygon fill="#181818" points="178,183.125,188,187.125,178,191.125,182,187.125" style="stroke:#181818;stroke-width:1.0;"/><line style="stroke:#181818;stroke-width:1.0;" x1="41" x2="184" y1="187.125" y2="187.125"/><text fill="#000000" font-family="sans-serif" font-size="13" lengthAdjust="spacing" textLength="52" x="89.5" y="182.0591">&#30003;&#35831;&#20196;&#29260;</text></g></svg>