<?xml version="1.0" encoding="us-ascii" standalone="no"?><svg xmlns="http://www.w3.org/2000/svg" xmlns:xlink="http://www.w3.org/1999/xlink" contentStyleType="text/css" height="539px" preserveAspectRatio="none" style="width:1050px;height:539px;background:#FFFFFF;" version="1.1" viewBox="0 0 1050 539" width="1050px" zoomAndPan="magnify"><defs/><g><text fill="#000000" font-family="sans-serif" font-size="14" font-weight="bold" lengthAdjust="spacing" textLength="285" x="381.75" y="27.9951">&#26377;&#20869;&#23481;&#20998;&#21457;&#32593;&#32476;&#21442;&#19982;&#30340;&#29992;&#25143;&#35775;&#38382;&#30340;&#35299;&#26512;&#36807;&#31243;</text><rect fill="none" height="46.2656" style="stroke:#000000;stroke-width:1.5;" width="363" x="163" y="119.7266"/><rect fill="none" height="74.3984" style="stroke:#000000;stroke-width:1.5;" width="251" x="661" y="238.2578"/><line style="stroke:#181818;stroke-width:0.5;stroke-dasharray:5.0,5.0;" x1="33" x2="33" y1="73.5938" y2="504.4531"/><line style="stroke:#181818;stroke-width:0.5;stroke-dasharray:5.0,5.0;" x1="209" x2="209" y1="73.5938" y2="504.4531"/><line style="stroke:#181818;stroke-width:0.5;stroke-dasharray:5.0,5.0;" x1="459" x2="459" y1="73.5938" y2="504.4531"/><line style="stroke:#181818;stroke-width:0.5;stroke-dasharray:5.0,5.0;" x1="739" x2="739" y1="73.5938" y2="504.4531"/><line style="stroke:#181818;stroke-width:0.5;stroke-dasharray:5.0,5.0;" x1="906.5" x2="906.5" y1="73.5938" y2="504.4531"/><line style="stroke:#181818;stroke-width:0.5;stroke-dasharray:5.0,5.0;" x1="1002.5" x2="1002.5" y1="73.5938" y2="504.4531"/><rect fill="#E2E2F0" height="30.2969" rx="2.5" ry="2.5" style="stroke:#181818;stroke-width:0.5;" width="56" x="5" y="42.2969"/><text fill="#000000" font-family="sans-serif" font-size="14" lengthAdjust="spacing" textLength="42" x="12" y="62.292">&#27983;&#35272;&#22120;</text><rect fill="#E2E2F0" height="30.2969" rx="2.5" ry="2.5" style="stroke:#181818;stroke-width:0.5;" width="56" x="5" y="503.4531"/><text fill="#000000" font-family="sans-serif" font-size="14" lengthAdjust="spacing" textLength="42" x="12" y="523.4482">&#27983;&#35272;&#22120;</text><rect fill="#E2E2F0" height="30.2969" rx="2.5" ry="2.5" style="stroke:#181818;stroke-width:0.5;" width="72" x="173" y="42.2969"/><text fill="#000000" font-family="sans-serif" font-size="14" lengthAdjust="spacing" textLength="58" x="180" y="62.292">&#26412;&#22320;DNS</text><rect fill="#E2E2F0" height="30.2969" rx="2.5" ry="2.5" style="stroke:#181818;stroke-width:0.5;" width="72" x="173" y="503.4531"/><text fill="#000000" font-family="sans-serif" font-size="14" lengthAdjust="spacing" textLength="58" x="180" y="523.4482">&#26412;&#22320;DNS</text><rect fill="#E2E2F0" height="30.2969" rx="2.5" ry="2.5" style="stroke:#181818;stroke-width:0.5;" width="114" x="402" y="42.2969"/><text fill="#000000" font-family="sans-serif" font-size="14" lengthAdjust="spacing" textLength="100" x="409" y="62.292">&#22495;&#21517;&#30340;&#26435;&#23041;DNS</text><rect fill="#E2E2F0" height="30.2969" rx="2.5" ry="2.5" style="stroke:#181818;stroke-width:0.5;" width="114" x="402" y="503.4531"/><text fill="#000000" font-family="sans-serif" font-size="14" lengthAdjust="spacing" textLength="100" x="409" y="523.4482">&#22495;&#21517;&#30340;&#26435;&#23041;DNS</text><rect fill="#E2E2F0" height="30.2969" rx="2.5" ry="2.5" style="stroke:#181818;stroke-width:0.5;" width="136" x="671" y="42.2969"/><text fill="#000000" font-family="sans-serif" font-size="14" lengthAdjust="spacing" textLength="122" x="678" y="62.292">CNAME&#30340;&#26435;&#23041;DNS</text><rect fill="#E2E2F0" height="30.2969" rx="2.5" ry="2.5" style="stroke:#181818;stroke-width:0.5;" width="136" x="671" y="503.4531"/><text fill="#000000" font-family="sans-serif" font-size="14" lengthAdjust="spacing" textLength="122" x="678" y="523.4482">CNAME&#30340;&#26435;&#23041;DNS</text><rect fill="#E2E2F0" height="30.2969" rx="2.5" ry="2.5" style="stroke:#181818;stroke-width:0.5;" width="87" x="863.5" y="42.2969"/><text fill="#000000" font-family="sans-serif" font-size="14" lengthAdjust="spacing" textLength="73" x="870.5" y="62.292">CND&#26381;&#21153;&#22120;</text><rect fill="#E2E2F0" height="30.2969" rx="2.5" ry="2.5" style="stroke:#181818;stroke-width:0.5;" width="87" x="863.5" y="503.4531"/><text fill="#000000" font-family="sans-serif" font-size="14" lengthAdjust="spacing" textLength="73" x="870.5" y="523.4482">CND&#26381;&#21153;&#22120;</text><rect fill="#E2E2F0" height="30.2969" rx="2.5" ry="2.5" style="stroke:#181818;stroke-width:0.5;" width="84" x="960.5" y="42.2969"/><text fill="#000000" font-family="sans-serif" font-size="14" lengthAdjust="spacing" textLength="70" x="967.5" y="62.292">&#28304;&#31449;&#26381;&#21153;&#22120;</text><rect fill="#E2E2F0" height="30.2969" rx="2.5" ry="2.5" style="stroke:#181818;stroke-width:0.5;" width="84" x="960.5" y="503.4531"/><text fill="#000000" font-family="sans-serif" font-size="14" lengthAdjust="spacing" textLength="70" x="967.5" y="523.4482">&#28304;&#31449;&#26381;&#21153;&#22120;</text><polygon fill="#181818" points="197,100.7266,207,104.7266,197,108.7266,201,104.7266" style="stroke:#181818;stroke-width:1.0;"/><line style="stroke:#181818;stroke-width:1.0;" x1="33" x2="203" y1="104.7266" y2="104.7266"/><text fill="#000000" font-family="sans-serif" font-size="13" lengthAdjust="spacing" textLength="152" x="45" y="99.6606">&#26597;&#35810;&#32593;&#31449; icyfenix.cn &#22320;&#22336;</text><path d="M163,119.7266 L240,119.7266 L240,126.8594 L230,136.8594 L163,136.8594 L163,119.7266 " fill="#EEEEEE" style="stroke:#000000;stroke-width:1.5;"/><rect fill="none" height="46.2656" style="stroke:#000000;stroke-width:1.5;" width="363" x="163" y="119.7266"/><text fill="#000000" font-family="sans-serif" font-size="13" font-weight="bold" lengthAdjust="spacing" textLength="32" x="178" y="132.7935">loop</text><text fill="#000000" font-family="sans-serif" font-size="11" font-weight="bold" lengthAdjust="spacing" textLength="54" x="255" y="131.937">[&#36882;&#24402;&#26597;&#35810;]</text><polygon fill="#181818" points="447,153.9922,457,157.9922,447,161.9922,451,157.9922" style="stroke:#181818;stroke-width:1.0;"/><line style="stroke:#181818;stroke-width:1.0;" x1="209" x2="453" y1="157.9922" y2="157.9922"/><text fill="#000000" font-family="sans-serif" font-size="13" lengthAdjust="spacing" textLength="152" x="258" y="152.9263">&#26597;&#35810;&#32593;&#31449; icyfenix.cn &#22320;&#22336;</text><polygon fill="#181818" points="220,190.125,210,194.125,220,198.125,216,194.125" style="stroke:#181818;stroke-width:1.0;"/><line style="stroke:#181818;stroke-width:1.0;" x1="214" x2="458" y1="194.125" y2="194.125"/><text fill="#000000" font-family="sans-serif" font-size="13" lengthAdjust="spacing" textLength="226" x="221" y="189.0591">CNAME: icyfenix.cn.cdn.dnsv1.com.</text><polygon fill="#181818" points="727,219.2578,737,223.2578,727,227.2578,731,223.2578" style="stroke:#181818;stroke-width:1.0;"/><line style="stroke:#181818;stroke-width:1.0;stroke-dasharray:2.0,2.0;" x1="459" x2="733" y1="223.2578" y2="223.2578"/><text fill="#000000" font-family="sans-serif" font-size="13" lengthAdjust="spacing" textLength="256" x="471" y="218.1919">&#26597;&#35810; CNAME: icyfenix.cn.cdn.dnsv1.com.</text><path d="M661,238.2578 L738,238.2578 L738,245.3906 L728,255.3906 L661,255.3906 L661,238.2578 " fill="#EEEEEE" style="stroke:#000000;stroke-width:1.5;"/><rect fill="none" height="74.3984" style="stroke:#000000;stroke-width:1.5;" width="251" x="661" y="238.2578"/><text fill="#000000" font-family="sans-serif" font-size="13" font-weight="bold" lengthAdjust="spacing" textLength="32" x="676" y="251.3247">loop</text><text fill="#000000" font-family="sans-serif" font-size="11" font-weight="bold" lengthAdjust="spacing" textLength="54" x="753" y="250.4683">[&#36882;&#24402;&#26597;&#35810;]</text><line style="stroke:#181818;stroke-width:1.0;" x1="739" x2="781" y1="291.6563" y2="291.6563"/><line style="stroke:#181818;stroke-width:1.0;" x1="781" x2="781" y1="291.6563" y2="304.6563"/><line style="stroke:#181818;stroke-width:1.0;" x1="740" x2="781" y1="304.6563" y2="304.6563"/><polygon fill="#181818" points="750,300.6563,740,304.6563,750,308.6563,746,304.6563" style="stroke:#181818;stroke-width:1.0;"/><text fill="#000000" font-family="sans-serif" font-size="13" lengthAdjust="spacing" textLength="91" x="777.5" y="271.4575">&#32463;&#36807;&#36882;&#24402;&#26597;&#35810;&#21644;</text><text fill="#000000" font-family="sans-serif" font-size="13" lengthAdjust="spacing" textLength="154" x="746" y="286.5903">&#36127;&#36733;&#22343;&#34913;, &#30830;&#23450;&#36866;&#21512;&#30340;CDN</text><polygon fill="#181818" points="220,336.7891,210,340.7891,220,344.7891,216,340.7891" style="stroke:#181818;stroke-width:1.0;"/><line style="stroke:#181818;stroke-width:1.0;stroke-dasharray:2.0,2.0;" x1="214" x2="738" y1="340.7891" y2="340.7891"/><text fill="#000000" font-family="sans-serif" font-size="13" lengthAdjust="spacing" textLength="110" x="419" y="335.7231">&#22320;&#22336;: XX.XX.XX.XX</text><polygon fill="#181818" points="44,365.9219,34,369.9219,44,373.9219,40,369.9219" style="stroke:#181818;stroke-width:1.0;"/><line style="stroke:#181818;stroke-width:1.0;stroke-dasharray:2.0,2.0;" x1="38" x2="208" y1="369.9219" y2="369.9219"/><text fill="#000000" font-family="sans-serif" font-size="13" lengthAdjust="spacing" textLength="110" x="66" y="364.856">&#22320;&#22336;: XX.XX.XX.XX</text><polygon fill="#181818" points="895,395.0547,905,399.0547,895,403.0547,899,399.0547" style="stroke:#181818;stroke-width:1.0;"/><line style="stroke:#181818;stroke-width:1.0;" x1="33" x2="901" y1="399.0547" y2="399.0547"/><text fill="#000000" font-family="sans-serif" font-size="13" lengthAdjust="spacing" textLength="26" x="457" y="393.9888">&#35831;&#27714;</text><polygon fill="#181818" points="990.5,424.1875,1000.5,428.1875,990.5,432.1875,994.5,428.1875" style="stroke:#181818;stroke-width:1.0;"/><line style="stroke:#181818;stroke-width:1.0;" x1="907" x2="996.5" y1="428.1875" y2="428.1875"/><text fill="#000000" font-family="sans-serif" font-size="13" lengthAdjust="spacing" textLength="26" x="941.75" y="423.1216">&#35831;&#27714;</text><polygon fill="#181818" points="918,453.3203,908,457.3203,918,461.3203,914,457.3203" style="stroke:#181818;stroke-width:1.0;"/><line style="stroke:#181818;stroke-width:1.0;stroke-dasharray:2.0,2.0;" x1="912" x2="1001.5" y1="457.3203" y2="457.3203"/><text fill="#000000" font-family="sans-serif" font-size="13" lengthAdjust="spacing" textLength="26" x="941.75" y="452.2544">&#21709;&#24212;</text><polygon fill="#181818" points="44,482.4531,34,486.4531,44,490.4531,40,486.4531" style="stroke:#181818;stroke-width:1.0;"/><line style="stroke:#181818;stroke-width:1.0;stroke-dasharray:2.0,2.0;" x1="38" x2="906" y1="486.4531" y2="486.4531"/><text fill="#000000" font-family="sans-serif" font-size="13" lengthAdjust="spacing" textLength="26" x="457" y="481.3872">&#21709;&#24212;</text></g></svg>