<?xml version="1.0" encoding="us-ascii" standalone="no"?><svg xmlns="http://www.w3.org/2000/svg" xmlns:xlink="http://www.w3.org/1999/xlink" contentStyleType="text/css" height="853px" preserveAspectRatio="none" style="width:447px;height:853px;background:#FFFFFF;" version="1.1" viewBox="0 0 447 853" width="447px" zoomAndPan="magnify"><defs/><g><text fill="#000000" font-family="sans-serif" font-size="14" font-weight="bold" lengthAdjust="spacing" textLength="173" x="138.5" y="27.9951">TCC&#30340;&#25191;&#34892;&#36807;&#31243;-&#20070;&#24215;&#31034;&#20363;</text><rect fill="none" height="90.2031" style="stroke:#000000;stroke-width:1.5;" width="251" x="20" y="119.7266"/><rect fill="none" height="90.2031" style="stroke:#000000;stroke-width:1.5;" width="331" x="20" y="253.0625"/><rect fill="none" height="90.2031" style="stroke:#000000;stroke-width:1.5;" width="411" x="20" y="386.3984"/><rect fill="none" height="135.6641" style="stroke:#000000;stroke-width:1.5;" width="431" x="10" y="515.6016"/><rect fill="none" height="104.5313" style="stroke:#000000;stroke-width:1.5;" width="411" x="20" y="539.7344"/><rect fill="none" height="135.6641" style="stroke:#000000;stroke-width:1.5;" width="431" x="10" y="665.2656"/><rect fill="none" height="104.5313" style="stroke:#000000;stroke-width:1.5;" width="411" x="20" y="689.3984"/><line style="stroke:#181818;stroke-width:0.5;stroke-dasharray:5.0,5.0;" x1="51" x2="51" y1="73.5938" y2="817.9297"/><line style="stroke:#181818;stroke-width:0.5;stroke-dasharray:5.0,5.0;" x1="226" x2="226" y1="73.5938" y2="817.9297"/><line style="stroke:#181818;stroke-width:0.5;stroke-dasharray:5.0,5.0;" x1="306" x2="306" y1="73.5938" y2="817.9297"/><line style="stroke:#181818;stroke-width:0.5;stroke-dasharray:5.0,5.0;" x1="386" x2="386" y1="73.5938" y2="817.9297"/><rect fill="#E2E2F0" height="30.2969" rx="2.5" ry="2.5" style="stroke:#181818;stroke-width:0.5;" width="42" x="30" y="42.2969"/><text fill="#000000" font-family="sans-serif" font-size="14" lengthAdjust="spacing" textLength="28" x="37" y="62.292">&#20070;&#24215;</text><rect fill="#E2E2F0" height="30.2969" rx="2.5" ry="2.5" style="stroke:#181818;stroke-width:0.5;" width="42" x="30" y="816.9297"/><text fill="#000000" font-family="sans-serif" font-size="14" lengthAdjust="spacing" textLength="28" x="37" y="836.9248">&#20070;&#24215;</text><rect fill="#E2E2F0" height="30.2969" rx="2.5" ry="2.5" style="stroke:#181818;stroke-width:0.5;" width="70" x="191" y="42.2969"/><text fill="#000000" font-family="sans-serif" font-size="14" lengthAdjust="spacing" textLength="56" x="198" y="62.292">&#36134;&#21495;&#26381;&#21153;</text><rect fill="#E2E2F0" height="30.2969" rx="2.5" ry="2.5" style="stroke:#181818;stroke-width:0.5;" width="70" x="191" y="816.9297"/><text fill="#000000" font-family="sans-serif" font-size="14" lengthAdjust="spacing" textLength="56" x="198" y="836.9248">&#36134;&#21495;&#26381;&#21153;</text><rect fill="#E2E2F0" height="30.2969" rx="2.5" ry="2.5" style="stroke:#181818;stroke-width:0.5;" width="70" x="271" y="42.2969"/><text fill="#000000" font-family="sans-serif" font-size="14" lengthAdjust="spacing" textLength="56" x="278" y="62.292">&#20179;&#24211;&#26381;&#21153;</text><rect fill="#E2E2F0" height="30.2969" rx="2.5" ry="2.5" style="stroke:#181818;stroke-width:0.5;" width="70" x="271" y="816.9297"/><text fill="#000000" font-family="sans-serif" font-size="14" lengthAdjust="spacing" textLength="56" x="278" y="836.9248">&#20179;&#24211;&#26381;&#21153;</text><rect fill="#E2E2F0" height="30.2969" rx="2.5" ry="2.5" style="stroke:#181818;stroke-width:0.5;" width="70" x="351" y="42.2969"/><text fill="#000000" font-family="sans-serif" font-size="14" lengthAdjust="spacing" textLength="56" x="358" y="62.292">&#21830;&#23478;&#26381;&#21153;</text><rect fill="#E2E2F0" height="30.2969" rx="2.5" ry="2.5" style="stroke:#181818;stroke-width:0.5;" width="70" x="351" y="816.9297"/><text fill="#000000" font-family="sans-serif" font-size="14" lengthAdjust="spacing" textLength="56" x="358" y="836.9248">&#21830;&#23478;&#26381;&#21153;</text><polygon fill="#181818" points="214,100.7266,224,104.7266,214,108.7266,218,104.7266" style="stroke:#181818;stroke-width:1.0;"/><line style="stroke:#181818;stroke-width:1.0;" x1="51" x2="220" y1="104.7266" y2="104.7266"/><text fill="#000000" font-family="sans-serif" font-size="13" lengthAdjust="spacing" textLength="112" x="82.5" y="99.6606">&#19994;&#21153;&#26816;&#26597;, &#20923;&#32467;&#36135;&#27454;</text><path d="M20,119.7266 L84,119.7266 L84,126.8594 L74,136.8594 L20,136.8594 L20,119.7266 " fill="#EEEEEE" style="stroke:#000000;stroke-width:1.5;"/><rect fill="none" height="90.2031" style="stroke:#000000;stroke-width:1.5;" width="251" x="20" y="119.7266"/><text fill="#000000" font-family="sans-serif" font-size="13" font-weight="bold" lengthAdjust="spacing" textLength="19" x="35" y="132.7935">alt</text><text fill="#000000" font-family="sans-serif" font-size="11" font-weight="bold" lengthAdjust="spacing" textLength="32" x="99" y="131.937">[&#25104;&#21151;]</text><polygon fill="#181818" points="62,153.9922,52,157.9922,62,161.9922,58,157.9922" style="stroke:#181818;stroke-width:1.0;"/><line style="stroke:#181818;stroke-width:1.0;stroke-dasharray:2.0,2.0;" x1="56" x2="225" y1="157.9922" y2="157.9922"/><text fill="#000000" font-family="sans-serif" font-size="13" lengthAdjust="spacing" textLength="128" x="74.5" y="152.9263">&#35760;&#24405;&#36827;&#20837;Confirm&#38454;&#27573;</text><line style="stroke:#000000;stroke-width:1.0;stroke-dasharray:2.0,2.0;" x1="20" x2="271" y1="166.9922" y2="166.9922"/><text fill="#000000" font-family="sans-serif" font-size="11" font-weight="bold" lengthAdjust="spacing" textLength="87" x="25" y="177.2026">[&#19994;&#21153;&#25110;&#32593;&#32476;&#24322;&#24120;]</text><polygon fill="#181818" points="62,197.9297,52,201.9297,62,205.9297,58,201.9297" style="stroke:#181818;stroke-width:1.0;"/><line style="stroke:#181818;stroke-width:1.0;stroke-dasharray:2.0,2.0;" x1="56" x2="225" y1="201.9297" y2="201.9297"/><text fill="#000000" font-family="sans-serif" font-size="13" lengthAdjust="spacing" textLength="121" x="78" y="196.8638">&#35760;&#24405;&#36827;&#20837;Cancel&#38454;&#27573;</text><polygon fill="#181818" points="294,234.0625,304,238.0625,294,242.0625,298,238.0625" style="stroke:#181818;stroke-width:1.0;"/><line style="stroke:#181818;stroke-width:1.0;" x1="51" x2="300" y1="238.0625" y2="238.0625"/><text fill="#000000" font-family="sans-serif" font-size="13" lengthAdjust="spacing" textLength="112" x="122.5" y="232.9966">&#19994;&#21153;&#26816;&#26597;, &#20923;&#32467;&#21830;&#21697;</text><path d="M20,253.0625 L84,253.0625 L84,260.1953 L74,270.1953 L20,270.1953 L20,253.0625 " fill="#EEEEEE" style="stroke:#000000;stroke-width:1.5;"/><rect fill="none" height="90.2031" style="stroke:#000000;stroke-width:1.5;" width="331" x="20" y="253.0625"/><text fill="#000000" font-family="sans-serif" font-size="13" font-weight="bold" lengthAdjust="spacing" textLength="19" x="35" y="266.1294">alt</text><text fill="#000000" font-family="sans-serif" font-size="11" font-weight="bold" lengthAdjust="spacing" textLength="32" x="99" y="265.2729">[&#25104;&#21151;]</text><polygon fill="#181818" points="62,287.3281,52,291.3281,62,295.3281,58,291.3281" style="stroke:#181818;stroke-width:1.0;"/><line style="stroke:#181818;stroke-width:1.0;stroke-dasharray:2.0,2.0;" x1="56" x2="305" y1="291.3281" y2="291.3281"/><text fill="#000000" font-family="sans-serif" font-size="13" lengthAdjust="spacing" textLength="128" x="114.5" y="286.2622">&#35760;&#24405;&#36827;&#20837;Confirm&#38454;&#27573;</text><line style="stroke:#000000;stroke-width:1.0;stroke-dasharray:2.0,2.0;" x1="20" x2="351" y1="300.3281" y2="300.3281"/><text fill="#000000" font-family="sans-serif" font-size="11" font-weight="bold" lengthAdjust="spacing" textLength="87" x="25" y="310.5386">[&#19994;&#21153;&#25110;&#32593;&#32476;&#24322;&#24120;]</text><polygon fill="#181818" points="62,331.2656,52,335.2656,62,339.2656,58,335.2656" style="stroke:#181818;stroke-width:1.0;"/><line style="stroke:#181818;stroke-width:1.0;stroke-dasharray:2.0,2.0;" x1="56" x2="305" y1="335.2656" y2="335.2656"/><text fill="#000000" font-family="sans-serif" font-size="13" lengthAdjust="spacing" textLength="121" x="118" y="330.1997">&#35760;&#24405;&#36827;&#20837;Cancel&#38454;&#27573;</text><polygon fill="#181818" points="374,367.3984,384,371.3984,374,375.3984,378,371.3984" style="stroke:#181818;stroke-width:1.0;"/><line style="stroke:#181818;stroke-width:1.0;" x1="51" x2="380" y1="371.3984" y2="371.3984"/><text fill="#000000" font-family="sans-serif" font-size="13" lengthAdjust="spacing" textLength="52" x="192.5" y="366.3325">&#19994;&#21153;&#26816;&#26597;</text><path d="M20,386.3984 L84,386.3984 L84,393.5313 L74,403.5313 L20,403.5313 L20,386.3984 " fill="#EEEEEE" style="stroke:#000000;stroke-width:1.5;"/><rect fill="none" height="90.2031" style="stroke:#000000;stroke-width:1.5;" width="411" x="20" y="386.3984"/><text fill="#000000" font-family="sans-serif" font-size="13" font-weight="bold" lengthAdjust="spacing" textLength="19" x="35" y="399.4653">alt</text><text fill="#000000" font-family="sans-serif" font-size="11" font-weight="bold" lengthAdjust="spacing" textLength="32" x="99" y="398.6089">[&#25104;&#21151;]</text><polygon fill="#181818" points="62,420.6641,52,424.6641,62,428.6641,58,424.6641" style="stroke:#181818;stroke-width:1.0;"/><line style="stroke:#181818;stroke-width:1.0;stroke-dasharray:2.0,2.0;" x1="56" x2="385" y1="424.6641" y2="424.6641"/><text fill="#000000" font-family="sans-serif" font-size="13" lengthAdjust="spacing" textLength="128" x="154.5" y="419.5981">&#35760;&#24405;&#36827;&#20837;Confirm&#38454;&#27573;</text><line style="stroke:#000000;stroke-width:1.0;stroke-dasharray:2.0,2.0;" x1="20" x2="431" y1="433.6641" y2="433.6641"/><text fill="#000000" font-family="sans-serif" font-size="11" font-weight="bold" lengthAdjust="spacing" textLength="87" x="25" y="443.8745">[&#19994;&#21153;&#25110;&#32593;&#32476;&#24322;&#24120;]</text><polygon fill="#181818" points="62,464.6016,52,468.6016,62,472.6016,58,468.6016" style="stroke:#181818;stroke-width:1.0;"/><line style="stroke:#181818;stroke-width:1.0;stroke-dasharray:2.0,2.0;" x1="56" x2="385" y1="468.6016" y2="468.6016"/><text fill="#000000" font-family="sans-serif" font-size="13" lengthAdjust="spacing" textLength="121" x="158" y="463.5356">&#35760;&#24405;&#36827;&#20837;Cancel&#38454;&#27573;</text><path d="M10,515.6016 L80,515.6016 L80,522.7344 L70,532.7344 L10,532.7344 L10,515.6016 " fill="#EEEEEE" style="stroke:#000000;stroke-width:1.5;"/><rect fill="none" height="135.6641" style="stroke:#000000;stroke-width:1.5;" width="431" x="10" y="515.6016"/><text fill="#000000" font-family="sans-serif" font-size="13" font-weight="bold" lengthAdjust="spacing" textLength="25" x="25" y="528.6685">opt</text><text fill="#000000" font-family="sans-serif" font-size="11" font-weight="bold" lengthAdjust="spacing" textLength="159" x="95" y="527.812">[&#20840;&#37096;&#35760;&#24405;&#22343;&#36820;&#22238;Confirm&#38454;&#27573;]</text><path d="M20,539.7344 L97,539.7344 L97,546.8672 L87,556.8672 L20,556.8672 L20,539.7344 " fill="#EEEEEE" style="stroke:#000000;stroke-width:1.5;"/><rect fill="none" height="104.5313" style="stroke:#000000;stroke-width:1.5;" width="411" x="20" y="539.7344"/><text fill="#000000" font-family="sans-serif" font-size="13" font-weight="bold" lengthAdjust="spacing" textLength="32" x="35" y="552.8013">loop</text><text fill="#000000" font-family="sans-serif" font-size="11" font-weight="bold" lengthAdjust="spacing" textLength="98" x="112" y="551.9448">[&#24490;&#29615;&#30452;&#33267;&#20840;&#37096;&#25104;&#21151;]</text><polygon fill="#181818" points="214,574,224,578,214,582,218,578" style="stroke:#181818;stroke-width:1.0;"/><line style="stroke:#181818;stroke-width:1.0;" x1="51" x2="220" y1="578" y2="578"/><text fill="#000000" font-family="sans-serif" font-size="13" lengthAdjust="spacing" textLength="151" x="63" y="572.9341">&#23436;&#25104;&#19994;&#21153;, &#25187;&#20943;&#20923;&#32467;&#30340;&#36135;&#27454;</text><polygon fill="#181818" points="294,603.1328,304,607.1328,294,611.1328,298,607.1328" style="stroke:#181818;stroke-width:1.0;"/><line style="stroke:#181818;stroke-width:1.0;" x1="51" x2="300" y1="607.1328" y2="607.1328"/><text fill="#000000" font-family="sans-serif" font-size="13" lengthAdjust="spacing" textLength="151" x="103" y="602.0669">&#23436;&#25104;&#19994;&#21153;, &#25187;&#20943;&#20923;&#32467;&#30340;&#36135;&#29289;</text><polygon fill="#181818" points="374,632.2656,384,636.2656,374,640.2656,378,636.2656" style="stroke:#181818;stroke-width:1.0;"/><line style="stroke:#181818;stroke-width:1.0;" x1="51" x2="380" y1="636.2656" y2="636.2656"/><text fill="#000000" font-family="sans-serif" font-size="13" lengthAdjust="spacing" textLength="112" x="162.5" y="631.1997">&#23436;&#25104;&#19994;&#21153;, &#36135;&#27454;&#25910;&#27454;</text><path d="M10,665.2656 L80,665.2656 L80,672.3984 L70,682.3984 L10,682.3984 L10,665.2656 " fill="#EEEEEE" style="stroke:#000000;stroke-width:1.5;"/><rect fill="none" height="135.6641" style="stroke:#000000;stroke-width:1.5;" width="431" x="10" y="665.2656"/><text fill="#000000" font-family="sans-serif" font-size="13" font-weight="bold" lengthAdjust="spacing" textLength="25" x="25" y="678.3325">opt</text><text fill="#000000" font-family="sans-serif" font-size="11" font-weight="bold" lengthAdjust="spacing" textLength="175" x="95" y="677.4761">[&#20219;&#24847;&#26381;&#21153;&#36229;&#26102;&#25110;&#36820;&#22238;Cancel&#38454;&#27573;]</text><path d="M20,689.3984 L97,689.3984 L97,696.5313 L87,706.5313 L20,706.5313 L20,689.3984 " fill="#EEEEEE" style="stroke:#000000;stroke-width:1.5;"/><rect fill="none" height="104.5313" style="stroke:#000000;stroke-width:1.5;" width="411" x="20" y="689.3984"/><text fill="#000000" font-family="sans-serif" font-size="13" font-weight="bold" lengthAdjust="spacing" textLength="32" x="35" y="702.4653">loop</text><text fill="#000000" font-family="sans-serif" font-size="11" font-weight="bold" lengthAdjust="spacing" textLength="98" x="112" y="701.6089">[&#24490;&#29615;&#30452;&#33267;&#20840;&#37096;&#25104;&#21151;]</text><polygon fill="#181818" points="214,723.6641,224,727.6641,214,731.6641,218,727.6641" style="stroke:#181818;stroke-width:1.0;"/><line style="stroke:#181818;stroke-width:1.0;" x1="51" x2="220" y1="727.6641" y2="727.6641"/><text fill="#000000" font-family="sans-serif" font-size="13" lengthAdjust="spacing" textLength="112" x="82.5" y="722.5981">&#21462;&#28040;&#19994;&#21153;, &#35299;&#20923;&#36135;&#27454;</text><polygon fill="#181818" points="294,752.7969,304,756.7969,294,760.7969,298,756.7969" style="stroke:#181818;stroke-width:1.0;"/><line style="stroke:#181818;stroke-width:1.0;" x1="51" x2="300" y1="756.7969" y2="756.7969"/><text fill="#000000" font-family="sans-serif" font-size="13" lengthAdjust="spacing" textLength="112" x="122.5" y="751.731">&#21462;&#28040;&#19994;&#21153;, &#35299;&#20923;&#36135;&#29289;</text><polygon fill="#181818" points="374,781.9297,384,785.9297,374,789.9297,378,785.9297" style="stroke:#181818;stroke-width:1.0;"/><line style="stroke:#181818;stroke-width:1.0;" x1="51" x2="380" y1="785.9297" y2="785.9297"/><text fill="#000000" font-family="sans-serif" font-size="13" lengthAdjust="spacing" textLength="52" x="192.5" y="780.8638">&#21462;&#28040;&#19994;&#21153;</text></g></svg>