<?xml version="1.0" encoding="us-ascii" standalone="no"?><svg xmlns="http://www.w3.org/2000/svg" xmlns:xlink="http://www.w3.org/1999/xlink" contentStyleType="text/css" height="303px" preserveAspectRatio="none" style="width:429px;height:303px;background:#FFFFFF;" version="1.1" viewBox="0 0 429 303" width="429px" zoomAndPan="magnify"><defs/><g><text fill="#000000" font-family="sans-serif" font-size="14" font-weight="bold" lengthAdjust="spacing" textLength="200" x="113.5" y="27.9951">OAuth2-&#21152;&#20196;&#29260;&#21518;&#30340;&#25480;&#26435;&#27969;&#31243;</text><rect fill="#FFFFFF" height="29.1328" style="stroke:#181818;stroke-width:1.0;" width="10" x="188" y="104.7266"/><rect fill="#FFFFFF" height="29.1328" style="stroke:#181818;stroke-width:1.0;" width="10" x="282" y="162.9922"/><rect fill="#FFFFFF" height="29.1328" style="stroke:#181818;stroke-width:1.0;" width="10" x="376" y="221.2578"/><line style="stroke:#181818;stroke-width:0.5;stroke-dasharray:5.0,5.0;" x1="47" x2="47" y1="73.5938" y2="268.3906"/><line style="stroke:#181818;stroke-width:0.5;stroke-dasharray:5.0,5.0;" x1="193" x2="193" y1="73.5938" y2="268.3906"/><line style="stroke:#181818;stroke-width:0.5;stroke-dasharray:5.0,5.0;" x1="287" x2="287" y1="73.5938" y2="268.3906"/><line style="stroke:#181818;stroke-width:0.5;stroke-dasharray:5.0,5.0;" x1="381" x2="381" y1="73.5938" y2="268.3906"/><rect fill="#E2E2F0" height="30.2969" rx="2.5" ry="2.5" style="stroke:#181818;stroke-width:0.5;" width="84" x="5" y="42.2969"/><text fill="#000000" font-family="sans-serif" font-size="14" lengthAdjust="spacing" textLength="70" x="12" y="62.292">&#31532;&#19977;&#26041;&#24212;&#29992;</text><rect fill="#E2E2F0" height="30.2969" rx="2.5" ry="2.5" style="stroke:#181818;stroke-width:0.5;" width="84" x="5" y="267.3906"/><text fill="#000000" font-family="sans-serif" font-size="14" lengthAdjust="spacing" textLength="70" x="12" y="287.3857">&#31532;&#19977;&#26041;&#24212;&#29992;</text><rect fill="#E2E2F0" height="30.2969" rx="2.5" ry="2.5" style="stroke:#181818;stroke-width:0.5;" width="84" x="151" y="42.2969"/><text fill="#000000" font-family="sans-serif" font-size="14" lengthAdjust="spacing" textLength="70" x="158" y="62.292">&#36164;&#28304;&#25152;&#26377;&#32773;</text><rect fill="#E2E2F0" height="30.2969" rx="2.5" ry="2.5" style="stroke:#181818;stroke-width:0.5;" width="84" x="151" y="267.3906"/><text fill="#000000" font-family="sans-serif" font-size="14" lengthAdjust="spacing" textLength="70" x="158" y="287.3857">&#36164;&#28304;&#25152;&#26377;&#32773;</text><rect fill="#E2E2F0" height="30.2969" rx="2.5" ry="2.5" style="stroke:#181818;stroke-width:0.5;" width="84" x="245" y="42.2969"/><text fill="#000000" font-family="sans-serif" font-size="14" lengthAdjust="spacing" textLength="70" x="252" y="62.292">&#25480;&#26435;&#26381;&#21153;&#22120;</text><rect fill="#E2E2F0" height="30.2969" rx="2.5" ry="2.5" style="stroke:#181818;stroke-width:0.5;" width="84" x="245" y="267.3906"/><text fill="#000000" font-family="sans-serif" font-size="14" lengthAdjust="spacing" textLength="70" x="252" y="287.3857">&#25480;&#26435;&#26381;&#21153;&#22120;</text><rect fill="#E2E2F0" height="30.2969" rx="2.5" ry="2.5" style="stroke:#181818;stroke-width:0.5;" width="84" x="339" y="42.2969"/><text fill="#000000" font-family="sans-serif" font-size="14" lengthAdjust="spacing" textLength="70" x="346" y="62.292">&#36164;&#28304;&#26381;&#21153;&#22120;</text><rect fill="#E2E2F0" height="30.2969" rx="2.5" ry="2.5" style="stroke:#181818;stroke-width:0.5;" width="84" x="339" y="267.3906"/><text fill="#000000" font-family="sans-serif" font-size="14" lengthAdjust="spacing" textLength="70" x="346" y="287.3857">&#36164;&#28304;&#26381;&#21153;&#22120;</text><rect fill="#FFFFFF" height="29.1328" style="stroke:#181818;stroke-width:1.0;" width="10" x="188" y="104.7266"/><rect fill="#FFFFFF" height="29.1328" style="stroke:#181818;stroke-width:1.0;" width="10" x="282" y="162.9922"/><rect fill="#FFFFFF" height="29.1328" style="stroke:#181818;stroke-width:1.0;" width="10" x="376" y="221.2578"/><polygon fill="#181818" points="176,100.7266,186,104.7266,176,108.7266,180,104.7266" style="stroke:#181818;stroke-width:1.0;"/><line style="stroke:#181818;stroke-width:1.0;" x1="47" x2="182" y1="104.7266" y2="104.7266"/><text fill="#000000" font-family="sans-serif" font-size="13" lengthAdjust="spacing" textLength="104" x="65.5" y="99.6606">&#35201;&#27714;&#29992;&#25143;&#32473;&#20104;&#25480;&#26435;</text><polygon fill="#181818" points="58,129.8594,48,133.8594,58,137.8594,54,133.8594" style="stroke:#181818;stroke-width:1.0;"/><line style="stroke:#181818;stroke-width:1.0;stroke-dasharray:2.0,2.0;" x1="52" x2="192" y1="133.8594" y2="133.8594"/><text fill="#000000" font-family="sans-serif" font-size="13" lengthAdjust="spacing" textLength="117" x="61.5" y="128.7935">&#21516;&#24847;&#32473;&#20104;&#35813;&#24212;&#29992;&#25480;&#26435;</text><polygon fill="#181818" points="270,158.9922,280,162.9922,270,166.9922,274,162.9922" style="stroke:#181818;stroke-width:1.0;"/><line style="stroke:#181818;stroke-width:1.0;" x1="47" x2="276" y1="162.9922" y2="162.9922"/><text fill="#000000" font-family="sans-serif" font-size="13" lengthAdjust="spacing" textLength="164" x="82.5" y="157.9263">&#25105;&#26377;&#29992;&#25143;&#25480;&#26435;, &#30003;&#35831;&#35775;&#38382;&#20196;&#29260;</text><polygon fill="#181818" points="58,188.125,48,192.125,58,196.125,54,192.125" style="stroke:#181818;stroke-width:1.0;"/><line style="stroke:#181818;stroke-width:1.0;stroke-dasharray:2.0,2.0;" x1="52" x2="286" y1="192.125" y2="192.125"/><text fill="#000000" font-family="sans-serif" font-size="13" lengthAdjust="spacing" textLength="104" x="115" y="187.0591">&#21516;&#24847;&#21457;&#25918;&#35775;&#38382;&#20196;&#29260;</text><polygon fill="#181818" points="364,217.2578,374,221.2578,364,225.2578,368,221.2578" style="stroke:#181818;stroke-width:1.0;"/><line style="stroke:#181818;stroke-width:1.0;" x1="47" x2="370" y1="221.2578" y2="221.2578"/><text fill="#000000" font-family="sans-serif" font-size="13" lengthAdjust="spacing" textLength="164" x="129.5" y="216.1919">&#25105;&#26377;&#35775;&#38382;&#20196;&#29260;, &#30003;&#35831;&#24320;&#25918;&#36164;&#28304;</text><polygon fill="#181818" points="58,246.3906,48,250.3906,58,254.3906,54,250.3906" style="stroke:#181818;stroke-width:1.0;"/><line style="stroke:#181818;stroke-width:1.0;stroke-dasharray:2.0,2.0;" x1="52" x2="380" y1="250.3906" y2="250.3906"/><text fill="#000000" font-family="sans-serif" font-size="13" lengthAdjust="spacing" textLength="78" x="175" y="245.3247">&#21516;&#24847;&#24320;&#25918;&#36164;&#28304;</text></g></svg>