<?xml version="1.0" encoding="us-ascii" standalone="no"?><svg xmlns="http://www.w3.org/2000/svg" xmlns:xlink="http://www.w3.org/1999/xlink" contentStyleType="text/css" height="714px" preserveAspectRatio="none" style="width:369px;height:714px;background:#FFFFFF;" version="1.1" viewBox="0 0 369 714" width="369px" zoomAndPan="magnify"><defs/><g><text fill="#000000" font-family="sans-serif" font-size="14" font-weight="bold" lengthAdjust="spacing" textLength="120" x="125.5" y="27.9951">&#26029;&#36335;&#22120;&#27169;&#24335;&#26102;&#24207;&#22270;</text><rect fill="#FFFFFF" height="87.3984" style="stroke:#181818;stroke-width:1.0;" width="10" x="164" y="104.7266"/><rect fill="#FFFFFF" height="87.3984" style="stroke:#181818;stroke-width:1.0;" width="10" x="164" y="270.3906"/><rect fill="#FFFFFF" height="129.5313" style="stroke:#181818;stroke-width:1.0;" width="10" x="164" y="426.7266"/><rect fill="#FFFFFF" height="29.1328" style="stroke:#181818;stroke-width:1.0;" width="10" x="164" y="625.1953"/><rect fill="none" height="430.2031" style="stroke:#000000;stroke-width:1.5;" width="352" x="10" y="232.125"/><line style="stroke:#181818;stroke-width:0.5;stroke-dasharray:5.0,5.0;" x1="62" x2="62" y1="73.5938" y2="679.3281"/><line style="stroke:#181818;stroke-width:0.5;stroke-dasharray:5.0,5.0;" x1="169" x2="169" y1="73.5938" y2="679.3281"/><line style="stroke:#181818;stroke-width:0.5;stroke-dasharray:5.0,5.0;" x1="310" x2="310" y1="73.5938" y2="679.3281"/><rect fill="#E2E2F0" height="30.2969" rx="2.5" ry="2.5" style="stroke:#181818;stroke-width:0.5;" width="84" x="20" y="42.2969"/><text fill="#000000" font-family="sans-serif" font-size="14" lengthAdjust="spacing" textLength="70" x="27" y="62.292">&#26381;&#21153;&#35843;&#29992;&#32773;</text><rect fill="#E2E2F0" height="30.2969" rx="2.5" ry="2.5" style="stroke:#181818;stroke-width:0.5;" width="84" x="20" y="678.3281"/><text fill="#000000" font-family="sans-serif" font-size="14" lengthAdjust="spacing" textLength="70" x="27" y="698.3232">&#26381;&#21153;&#35843;&#29992;&#32773;</text><rect fill="#E2E2F0" height="30.2969" rx="2.5" ry="2.5" style="stroke:#181818;stroke-width:0.5;" width="56" x="141" y="42.2969"/><text fill="#000000" font-family="sans-serif" font-size="14" lengthAdjust="spacing" textLength="42" x="148" y="62.292">&#26029;&#36335;&#22120;</text><rect fill="#E2E2F0" height="30.2969" rx="2.5" ry="2.5" style="stroke:#181818;stroke-width:0.5;" width="56" x="141" y="678.3281"/><text fill="#000000" font-family="sans-serif" font-size="14" lengthAdjust="spacing" textLength="42" x="148" y="698.3232">&#26029;&#36335;&#22120;</text><rect fill="#E2E2F0" height="30.2969" rx="2.5" ry="2.5" style="stroke:#181818;stroke-width:0.5;" width="84" x="268" y="42.2969"/><text fill="#000000" font-family="sans-serif" font-size="14" lengthAdjust="spacing" textLength="70" x="275" y="62.292">&#26381;&#21153;&#25552;&#20379;&#32773;</text><rect fill="#E2E2F0" height="30.2969" rx="2.5" ry="2.5" style="stroke:#181818;stroke-width:0.5;" width="84" x="268" y="678.3281"/><text fill="#000000" font-family="sans-serif" font-size="14" lengthAdjust="spacing" textLength="70" x="275" y="698.3232">&#26381;&#21153;&#25552;&#20379;&#32773;</text><rect fill="#FFFFFF" height="87.3984" style="stroke:#181818;stroke-width:1.0;" width="10" x="164" y="104.7266"/><rect fill="#FFFFFF" height="87.3984" style="stroke:#181818;stroke-width:1.0;" width="10" x="164" y="270.3906"/><rect fill="#FFFFFF" height="129.5313" style="stroke:#181818;stroke-width:1.0;" width="10" x="164" y="426.7266"/><rect fill="#FFFFFF" height="29.1328" style="stroke:#181818;stroke-width:1.0;" width="10" x="164" y="625.1953"/><polygon fill="#181818" points="152,100.7266,162,104.7266,152,108.7266,156,104.7266" style="stroke:#181818;stroke-width:1.0;"/><line style="stroke:#181818;stroke-width:1.0;" x1="62" x2="158" y1="104.7266" y2="104.7266"/><text fill="#000000" font-family="sans-serif" font-size="13" lengthAdjust="spacing" textLength="26" x="100" y="99.6606">&#35831;&#27714;</text><polygon fill="#181818" points="298,129.8594,308,133.8594,298,137.8594,302,133.8594" style="stroke:#181818;stroke-width:1.0;"/><line style="stroke:#181818;stroke-width:1.0;" x1="174" x2="304" y1="133.8594" y2="133.8594"/><text fill="#000000" font-family="sans-serif" font-size="13" lengthAdjust="spacing" textLength="78" x="203" y="128.7935">&#20195;&#29702;&#36828;&#31243;&#35831;&#27714;</text><polygon fill="#181818" points="185,158.9922,175,162.9922,185,166.9922,181,162.9922" style="stroke:#181818;stroke-width:1.0;"/><line style="stroke:#181818;stroke-width:1.0;stroke-dasharray:2.0,2.0;" x1="179" x2="309" y1="162.9922" y2="162.9922"/><text fill="#000000" font-family="sans-serif" font-size="13" lengthAdjust="spacing" textLength="52" x="216" y="157.9263">&#25104;&#21151;&#36820;&#22238;</text><polygon fill="#181818" points="73,188.125,63,192.125,73,196.125,69,192.125" style="stroke:#181818;stroke-width:1.0;"/><line style="stroke:#181818;stroke-width:1.0;stroke-dasharray:2.0,2.0;" x1="67" x2="168" y1="192.125" y2="192.125"/><text fill="#000000" font-family="sans-serif" font-size="13" lengthAdjust="spacing" textLength="78" x="76.5" y="187.0591">&#20195;&#29702;&#36828;&#31243;&#21709;&#24212;</text><path d="M10,232.125 L80,232.125 L80,239.2578 L70,249.2578 L10,249.2578 L10,232.125 " fill="#EEEEEE" style="stroke:#000000;stroke-width:1.5;"/><rect fill="none" height="430.2031" style="stroke:#000000;stroke-width:1.5;" width="352" x="10" y="232.125"/><text fill="#000000" font-family="sans-serif" font-size="13" font-weight="bold" lengthAdjust="spacing" textLength="25" x="25" y="245.1919">par</text><text fill="#000000" font-family="sans-serif" font-size="11" font-weight="bold" lengthAdjust="spacing" textLength="109" x="95" y="244.3354">[&#22833;&#36133;&#26410;&#36229;&#36807;&#26029;&#36335;&#38408;&#20540;]</text><polygon fill="#181818" points="152,266.3906,162,270.3906,152,274.3906,156,270.3906" style="stroke:#181818;stroke-width:1.0;"/><line style="stroke:#181818;stroke-width:1.0;" x1="62" x2="158" y1="270.3906" y2="270.3906"/><text fill="#000000" font-family="sans-serif" font-size="13" lengthAdjust="spacing" textLength="26" x="100" y="265.3247">&#35831;&#27714;</text><polygon fill="#181818" points="298,295.5234,308,299.5234,298,303.5234,302,299.5234" style="stroke:#181818;stroke-width:1.0;"/><line style="stroke:#181818;stroke-width:1.0;" x1="174" x2="304" y1="299.5234" y2="299.5234"/><text fill="#000000" font-family="sans-serif" font-size="13" lengthAdjust="spacing" textLength="78" x="203" y="294.4575">&#20195;&#29702;&#36828;&#31243;&#35831;&#27714;</text><polygon fill="#181818" points="185,324.6563,175,328.6563,185,332.6563,181,328.6563" style="stroke:#181818;stroke-width:1.0;"/><line style="stroke:#181818;stroke-width:1.0;stroke-dasharray:2.0,2.0;" x1="179" x2="309" y1="328.6563" y2="328.6563"/><text fill="#000000" font-family="sans-serif" font-size="13" lengthAdjust="spacing" textLength="112" x="186" y="323.5903">&#35831;&#27714;&#22833;&#36133;/&#36229;&#26102;/&#25298;&#32477;</text><polygon fill="#181818" points="73,353.7891,63,357.7891,73,361.7891,69,357.7891" style="stroke:#181818;stroke-width:1.0;"/><line style="stroke:#181818;stroke-width:1.0;stroke-dasharray:2.0,2.0;" x1="67" x2="168" y1="357.7891" y2="357.7891"/><text fill="#000000" font-family="sans-serif" font-size="13" lengthAdjust="spacing" textLength="78" x="76.5" y="352.7231">&#20195;&#29702;&#36828;&#31243;&#22833;&#36133;</text><line style="stroke:#000000;stroke-width:1.0;stroke-dasharray:2.0,2.0;" x1="10" x2="362" y1="391.7891" y2="391.7891"/><text fill="#000000" font-family="sans-serif" font-size="11" font-weight="bold" lengthAdjust="spacing" textLength="98" x="15" y="401.9995">[&#22833;&#36133;&#36798;&#21040;&#26029;&#36335;&#38408;&#20540;]</text><polygon fill="#181818" points="152,422.7266,162,426.7266,152,430.7266,156,426.7266" style="stroke:#181818;stroke-width:1.0;"/><line style="stroke:#181818;stroke-width:1.0;" x1="62" x2="158" y1="426.7266" y2="426.7266"/><text fill="#000000" font-family="sans-serif" font-size="13" lengthAdjust="spacing" textLength="26" x="100" y="421.6606">&#35831;&#27714;</text><polygon fill="#181818" points="298,451.8594,308,455.8594,298,459.8594,302,455.8594" style="stroke:#181818;stroke-width:1.0;"/><line style="stroke:#181818;stroke-width:1.0;" x1="174" x2="304" y1="455.8594" y2="455.8594"/><text fill="#000000" font-family="sans-serif" font-size="13" lengthAdjust="spacing" textLength="78" x="203" y="450.7935">&#20195;&#29702;&#36828;&#31243;&#35831;&#27714;</text><polygon fill="#181818" points="185,480.9922,175,484.9922,185,488.9922,181,484.9922" style="stroke:#181818;stroke-width:1.0;"/><line style="stroke:#181818;stroke-width:1.0;stroke-dasharray:2.0,2.0;" x1="179" x2="309" y1="484.9922" y2="484.9922"/><text fill="#000000" font-family="sans-serif" font-size="13" lengthAdjust="spacing" textLength="112" x="186" y="479.9263">&#35831;&#27714;&#22833;&#36133;/&#36229;&#26102;/&#25298;&#32477;</text><line style="stroke:#181818;stroke-width:1.0;" x1="174" x2="216" y1="514.125" y2="514.125"/><line style="stroke:#181818;stroke-width:1.0;" x1="216" x2="216" y1="514.125" y2="527.125"/><line style="stroke:#181818;stroke-width:1.0;" x1="175" x2="216" y1="527.125" y2="527.125"/><polygon fill="#181818" points="185,523.125,175,527.125,185,531.125,181,527.125" style="stroke:#181818;stroke-width:1.0;"/><text fill="#000000" font-family="sans-serif" font-size="13" lengthAdjust="spacing" textLength="65" x="181" y="509.0591">&#25171;&#24320;&#26029;&#36335;&#22120;</text><polygon fill="#181818" points="73,552.2578,63,556.2578,73,560.2578,69,556.2578" style="stroke:#181818;stroke-width:1.0;"/><line style="stroke:#181818;stroke-width:1.0;stroke-dasharray:2.0,2.0;" x1="67" x2="168" y1="556.2578" y2="556.2578"/><text fill="#000000" font-family="sans-serif" font-size="13" lengthAdjust="spacing" textLength="78" x="76.5" y="551.1919">&#20195;&#29702;&#36828;&#31243;&#22833;&#36133;</text><line style="stroke:#000000;stroke-width:1.0;stroke-dasharray:2.0,2.0;" x1="10" x2="362" y1="590.2578" y2="590.2578"/><text fill="#000000" font-family="sans-serif" font-size="11" font-weight="bold" lengthAdjust="spacing" textLength="98" x="15" y="600.4683">[&#22833;&#36133;&#36229;&#36807;&#26029;&#36335;&#38408;&#20540;]</text><polygon fill="#181818" points="152,621.1953,162,625.1953,152,629.1953,156,625.1953" style="stroke:#181818;stroke-width:1.0;"/><line style="stroke:#181818;stroke-width:1.0;" x1="62" x2="158" y1="625.1953" y2="625.1953"/><text fill="#000000" font-family="sans-serif" font-size="13" lengthAdjust="spacing" textLength="26" x="100" y="620.1294">&#35831;&#27714;</text><polygon fill="#181818" points="73,650.3281,63,654.3281,73,658.3281,69,654.3281" style="stroke:#181818;stroke-width:1.0;"/><line style="stroke:#181818;stroke-width:1.0;stroke-dasharray:2.0,2.0;" x1="67" x2="168" y1="654.3281" y2="654.3281"/><text fill="#000000" font-family="sans-serif" font-size="13" lengthAdjust="spacing" textLength="52" x="89.5" y="649.2622">&#35831;&#27714;&#22833;&#36133;</text></g></svg>